<svg width="571" height="449" viewBox="0 0 571 449" fill="none" xmlns="http://www.w3.org/2000/svg">
<g clip-path="url(#clip0_1305_2099)">
<path d="M360.864 243.681C360.864 243.681 335.176 235.305 288.325 198.431C255.216 172.372 229.669 134.193 231.649 131.226C233.628 128.258 241.115 140.109 241.115 140.109C241.115 140.109 230.159 121.291 232.897 119.272C235.634 117.252 246.432 133.466 246.432 133.466C246.432 133.466 237.313 116.998 239.693 115.712C242.073 114.427 253.015 128.592 253.015 128.592C253.015 128.592 246 116.32 247.98 114.924C250.871 112.868 262.793 134.093 264.89 134.204C264.89 134.204 263.951 124.846 266.517 124.787C268.958 124.727 269.883 138.292 277.353 142.599C338.967 178.191 388.859 190.434 388.859 190.434L360.864 243.681Z" fill="#EAACAD"/>
<path d="M503.178 235.571C503.178 235.571 457.042 217.232 380.974 185.134C380.974 185.134 359.381 210.183 355.239 243.254C355.239 243.254 439.222 290.062 478.537 304.458L503.178 235.571Z" fill="url(#paint0_linear_1305_2099)"/>
<path d="M297.33 238.485L325.649 45.5844L246.28 33.9247C245.977 41.4968 248.099 48.985 252.028 55.5916C256.25 62.6886 257.869 71.3886 255.835 80.2534C252.265 95.7022 237.929 106.757 222.084 106.176C201.718 105.444 187.038 87.3237 189.92 67.7343C191.104 59.6653 195.073 52.7055 200.72 47.6697C206.296 42.6844 210.079 36.0697 211.991 28.8805L132.704 17.2349L121.064 96.4944C113.872 94.5816 107.254 90.7991 102.267 85.2246C97.2251 79.5988 90.2661 75.6107 82.1942 74.4256C62.5537 71.556 44.4293 86.2288 43.7191 106.591C43.1371 122.452 54.197 136.783 69.655 140.334C78.5194 142.389 87.2257 140.751 94.3246 136.532C100.929 132.625 108.42 130.505 115.998 130.788L104.344 210.128L297.33 238.485Z" fill="url(#paint1_linear_1305_2099)"/>
<path d="M468.927 144.194C468.927 144.194 457.233 155.726 451.941 162.1C451.941 162.1 446.066 162.635 442.965 165.304C439.863 167.973 445.168 173.288 445.168 173.288C445.168 173.288 436.723 182.512 437.716 190.831C438.495 197.48 451.983 206.492 451.983 206.492L449.533 230.618C449.533 230.618 464.673 245.466 494.403 237.846L494.381 206.8C494.381 206.8 510.901 190.866 508.402 176.463C505.924 162.064 489.509 144.524 468.927 144.194Z" fill="#EAACAD"/>
<path d="M485.798 203.244C482.519 199.787 478.637 192.665 484.736 186.471C488.093 183.051 484.066 179.066 484.066 179.066C484.066 179.066 475.653 183.373 474.401 181.041C473.558 179.492 477.544 173.038 477.544 173.038C477.544 173.038 471.652 167.601 463.369 149.811C459.702 141.93 471.329 111.745 477.034 112.437C482.74 113.13 486.007 131.331 486.007 131.331C486.007 131.331 493.332 120.95 497.299 121.636C501.267 122.321 500.413 140.48 500.413 140.48C500.413 140.48 508.169 131.368 511.782 132.286C515.395 133.203 513.884 149.469 513.828 151.491C513.828 151.491 527.351 147.082 529.504 149.779C531.657 152.476 523.983 167.3 523.983 167.3C523.983 167.3 529.433 168.262 532.142 171.014C535.426 174.325 500.335 218.554 485.798 203.244Z" fill="url(#paint2_linear_1305_2099)"/>
<path d="M341.465 277.739C341.465 277.739 315.198 271.504 264.999 239.33C229.514 216.589 200.412 181.043 202.107 177.9C203.803 174.758 212.387 185.835 212.387 185.835C212.387 185.835 199.663 168.157 202.191 165.892C204.703 163.603 217.035 178.699 217.035 178.699C217.035 178.699 206.365 163.199 208.618 161.682C210.871 160.165 223.116 173.215 223.116 173.215C223.116 173.215 214.949 161.666 216.791 160.099C219.476 157.777 233.395 177.755 235.487 177.656C235.487 177.656 233.643 168.435 236.191 168.121C238.609 167.827 240.839 181.241 248.686 184.817C313.453 214.292 364.182 222.051 364.182 222.051L341.465 277.739Z" fill="#EAACAD"/>
<path d="M348.965 214.311C348.965 214.311 333.461 244.141 329.913 276.685C329.913 276.685 352.234 288.292 373.668 295.702C378.991 296.789 363.604 368.385 371.87 416.229C387.433 435.424 512.854 434.492 532.415 418.538C526.135 370.115 522.756 255.899 509.201 238.664C498.668 225.283 464.502 238.21 348.965 214.311Z" fill="url(#paint3_linear_1305_2099)"/>
</g>
<defs>
<linearGradient id="paint0_linear_1305_2099" x1="459.567" y1="254.197" x2="357.835" y2="222.12" gradientUnits="userSpaceOnUse">
<stop stop-color="#0C3050"/>
<stop offset="0.149" stop-color="#32516C"/>
<stop offset="0.3266" stop-color="#587288"/>
<stop offset="0.5031" stop-color="#768C9E"/>
<stop offset="0.6761" stop-color="#8C9EAD"/>
<stop offset="0.8437" stop-color="#99A9B7"/>
<stop offset="1" stop-color="#9DADBA"/>
</linearGradient>
<linearGradient id="paint1_linear_1305_2099" x1="368.39" y1="-25.179" x2="168.42" y2="168.098" gradientUnits="userSpaceOnUse">
<stop stop-color="#0E3252"/>
<stop offset="0.1304" stop-color="#213653"/>
<stop offset="0.3947" stop-color="#524054"/>
<stop offset="0.7652" stop-color="#A05056"/>
<stop offset="1" stop-color="#D55B58"/>
</linearGradient>
<linearGradient id="paint2_linear_1305_2099" x1="518.828" y1="195.568" x2="464.37" y2="104.68" gradientUnits="userSpaceOnUse">
<stop stop-color="#0C3050"/>
<stop offset="0.149" stop-color="#32516C"/>
<stop offset="0.3266" stop-color="#587288"/>
<stop offset="0.5031" stop-color="#768C9E"/>
<stop offset="0.6761" stop-color="#8C9EAD"/>
<stop offset="0.8437" stop-color="#99A9B7"/>
<stop offset="1" stop-color="#9DADBA"/>
</linearGradient>
<linearGradient id="paint3_linear_1305_2099" x1="531.759" y1="419.178" x2="367.143" y2="253.486" gradientUnits="userSpaceOnUse">
<stop stop-color="#0C3050"/>
<stop offset="0.149" stop-color="#32516C"/>
<stop offset="0.3266" stop-color="#587288"/>
<stop offset="0.5031" stop-color="#768C9E"/>
<stop offset="0.6761" stop-color="#8C9EAD"/>
<stop offset="0.8437" stop-color="#99A9B7"/>
<stop offset="1" stop-color="#9DADBA"/>
</linearGradient>
<clipPath id="clip0_1305_2099">
<rect width="535" height="363" fill="white" transform="translate(61.7988) rotate(9.8021)"/>
</clipPath>
</defs>
</svg>
