<svg width="528" height="454" viewBox="0 0 528 454" fill="none" xmlns="http://www.w3.org/2000/svg">
<g clip-path="url(#clip0_1305_2130)">
<path d="M248.317 174.816C293.936 175.184 312.35 158.151 314.309 161.167C315.377 162.824 305.538 169.128 305.538 169.128C305.538 169.128 318.077 163.686 319.325 165.509C320.555 167.326 308.448 175.112 308.448 175.112C308.448 175.112 322.854 167.162 324.057 169.654C325.261 172.146 310.191 181.077 310.191 181.077C310.191 181.077 321.975 174.334 323.132 176.984C323.686 178.263 315.816 184.497 307.435 189.692C307.435 189.692 313.034 192.422 312.434 193.896C311.214 196.914 298.051 193.912 298.051 193.912C284.563 201.181 266.657 209.134 249.744 213.093C205.102 223.526 167.402 207.993 167.402 207.993L193.324 155.457C193.324 155.457 224.291 174.618 248.317 174.816Z" fill="#EAACAD"/>
<path d="M127.601 106.953C127.601 106.953 158.648 145.125 216.054 163.084C216.054 163.084 216.38 198.975 205.62 220.645C205.62 220.645 170.122 220.668 150.535 212.25C150.53 212.268 95.9011 150.624 127.601 106.953Z" fill="url(#paint0_linear_1305_2130)"/>
<path d="M288.992 149.034L235.135 312.246L302.15 334.369C303.564 327.826 302.864 321.009 300.47 314.683C297.896 307.869 297.803 300.073 300.916 292.699C306.352 279.824 320.454 272.393 334.12 275.294C351.673 279.007 361.634 296.956 356.16 313.533C353.906 320.362 349.409 325.797 343.764 329.326C338.17 332.812 333.881 337.987 331.145 343.936L398.09 366.038L420.221 298.981C426.172 301.738 431.318 306.023 434.799 311.604C438.318 317.253 443.742 321.752 450.559 324.004C467.109 329.47 485.042 319.479 488.764 301.898C491.652 288.224 484.261 274.113 471.414 268.664C464.035 265.548 456.25 265.648 449.46 268.236C443.141 270.64 436.333 271.347 429.801 269.936L451.952 202.809L288.992 149.034Z" fill="url(#paint1_linear_1305_2130)"/>
<path d="M202.597 114.082C202.597 114.082 199.472 131.496 197.53 138.68C197.53 138.68 202.893 140.338 202.53 143.984C202.168 147.631 193.533 146.555 193.533 146.555C193.533 146.555 188.574 158.962 182.275 161.296C175.994 163.635 162.106 159.095 157.632 155.101C157.632 155.101 137.227 165.528 134.228 167.572C134.228 167.572 114.761 155.172 119.311 128.13L142.598 123.395C142.598 123.395 146.766 107.535 158.603 101.907C170.437 96.2218 191.733 99.1675 202.597 114.082Z" fill="#EAACAD"/>
<path d="M148.723 97.2471C138.006 114.874 140.233 131.384 151.327 135.318C159.007 138.048 166.751 130.887 166.751 130.887C166.751 130.887 162.443 129.309 163.509 124.352C164.408 120.161 169.287 121.014 169.287 121.014C169.287 121.014 170.383 128.743 174.41 128.495C178.436 128.247 179.738 121.766 179.738 121.766C179.738 121.766 189.886 126.542 201.123 122.066C208.615 119.076 223.352 85.641 194.45 73.8083C153.923 57.2621 178.646 89.4796 178.646 89.4796C178.646 89.4796 155.95 85.3677 148.723 97.2471Z" fill="url(#paint2_linear_1305_2130)"/>
<path d="M153.268 279.485C153.268 279.485 195.248 297.08 240.58 290.316C274.422 285.263 313.371 265.023 313.285 262.136C313.204 259.233 302.938 264.143 302.938 264.143C302.938 264.143 318.61 255.938 317.616 253.374C316.628 250.793 302.178 257.271 302.178 257.271C302.178 257.271 315.582 249.901 314.498 247.974C313.413 246.048 299.771 251.055 299.771 251.055C299.771 251.055 309.915 245.654 309.161 243.823C308.066 241.154 290.676 250.584 289.196 249.755C289.196 249.755 293.901 243.735 292.156 242.582C290.505 241.495 283.828 248.569 277.414 251.362C256.88 260.349 194.831 238.972 183.386 229.232L153.268 279.485Z" fill="#EAACAD"/>
<path d="M-5.29445 268.794C-5.29445 268.794 -40.38 292.529 -78.2968 301.567C-78.2968 301.567 -117.949 214.498 -99.6837 147.072C-99.6837 147.072 -44.0465 124.096 -20.9 124.454L-5.29445 268.794Z" fill="url(#paint3_linear_1305_2130)"/>
<path d="M188.269 230.845C188.269 230.845 173.772 265.146 153.581 282.628C153.581 282.628 118.457 264.358 94.7485 236.321C92.5519 232.497 22.286 257.957 -0.856296 274.466C-10.5845 279.609 -77.6364 195.869 -43.5184 122.735C-34.254 106.522 101.867 90.2835 125.002 103.733C136.962 110.667 108.071 147.879 188.269 230.845Z" fill="url(#paint4_linear_1305_2130)"/>
</g>
<defs>
<linearGradient id="paint0_linear_1305_2130" x1="129.736" y1="155.757" x2="252.029" y2="206.28" gradientUnits="userSpaceOnUse">
<stop stop-color="#0C3050"/>
<stop offset="0.149" stop-color="#32516C"/>
<stop offset="0.3266" stop-color="#587288"/>
<stop offset="0.5031" stop-color="#768C9E"/>
<stop offset="0.6761" stop-color="#8C9EAD"/>
<stop offset="0.8437" stop-color="#99A9B7"/>
<stop offset="1" stop-color="#9DADBA"/>
</linearGradient>
<linearGradient id="paint1_linear_1305_2130" x1="440.412" y1="131.868" x2="344.435" y2="308.299" gradientUnits="userSpaceOnUse">
<stop stop-color="#0E3252"/>
<stop offset="0.1304" stop-color="#213653"/>
<stop offset="0.3947" stop-color="#524054"/>
<stop offset="0.7652" stop-color="#A05056"/>
<stop offset="1" stop-color="#D55B58"/>
</linearGradient>
<linearGradient id="paint2_linear_1305_2130" x1="155.709" y1="153.887" x2="189.761" y2="80.4126" gradientUnits="userSpaceOnUse">
<stop offset="0.145" stop-color="#0E3252"/>
<stop offset="1" stop-color="#0C3050"/>
</linearGradient>
<linearGradient id="paint3_linear_1305_2130" x1="-47.6635" y1="347.983" x2="-59.4365" y2="160.014" gradientUnits="userSpaceOnUse">
<stop offset="0.145" stop-color="#0E3252"/>
<stop offset="1" stop-color="#0C3050"/>
</linearGradient>
<linearGradient id="paint4_linear_1305_2130" x1="-44.0873" y1="231.958" x2="124.215" y2="179.472" gradientUnits="userSpaceOnUse">
<stop stop-color="#0C3050"/>
<stop offset="0.149" stop-color="#32516C"/>
<stop offset="0.3266" stop-color="#587288"/>
<stop offset="0.5031" stop-color="#768C9E"/>
<stop offset="0.6761" stop-color="#8C9EAD"/>
<stop offset="0.8437" stop-color="#99A9B7"/>
<stop offset="1" stop-color="#9DADBA"/>
</linearGradient>
<clipPath id="clip0_1305_2130">
<rect width="608.321" height="295.494" fill="white" transform="translate(-56.8359 0.0195312) rotate(16.2452)"/>
</clipPath>
</defs>
</svg>
