<svg width="509" height="526" viewBox="0 0 509 526" fill="none" xmlns="http://www.w3.org/2000/svg">
<g clip-path="url(#clip0_1305_2118)">
<path d="M170.621 160.719L15.7106 224.718L42.0537 288.496C47.778 285.375 52.3756 280.525 55.5212 274.723C58.9041 268.478 64.6261 263.453 72.0614 261.059C85.0428 256.89 99.509 262.619 106.068 274.589C114.504 289.962 107.59 308.785 91.8418 315.282C85.3557 317.959 78.4657 318.084 72.2717 316.149C66.1397 314.23 59.5864 314.347 53.4279 316.096L79.7411 379.79L143.378 353.495C145.13 359.658 145.244 366.199 143.336 372.351C141.389 378.554 141.517 385.449 144.213 391.935C150.709 407.68 169.529 414.626 184.887 406.193C196.845 399.636 202.563 385.163 198.389 372.171C195.992 364.729 190.967 359.001 184.725 355.612C178.925 352.461 174.076 347.858 170.953 342.128L234.674 315.802L170.621 160.719Z" fill="url(#paint0_linear_1305_2118)"/>
<path d="M480.443 171.719C513.293 182.117 522.215 193.054 523.9 192.338C525.663 191.576 522.383 185.355 522.383 185.355C523.86 184.846 538.062 196.215 539.489 193.989C540.472 192.468 532.173 185.91 532.173 185.91C532.173 185.91 543.71 192.668 545.017 191.107C546.308 189.552 535.376 180.692 535.376 180.692C535.376 180.692 547.41 188.894 548.733 186.742C550.049 184.574 537.191 174.592 537.191 174.592C537.191 174.592 545.71 180.713 546.248 178.106C546.62 176.351 522.956 158.124 502.093 146.308C440.037 111.14 396.79 117.095 396.79 117.095L406.785 165.82C406.756 165.793 438.2 158.343 480.443 171.719Z" fill="#EAACAD"/>
<path d="M180.145 250.351C147.547 261.476 134.218 258.98 133.293 260.556C132.324 262.222 138.655 265.278 138.655 265.278C137.774 266.555 119.594 265.83 119.77 268.483C119.888 270.289 130.454 270.642 130.454 270.642C130.454 270.642 117.165 272.055 117.041 274.08C116.917 276.104 130.98 276.753 130.98 276.753C130.98 276.753 116.432 277.277 116.661 279.817C116.846 282.335 133.121 282.74 133.121 282.74C133.121 282.74 122.65 282.862 123.758 285.277C124.512 286.912 154.341 287.545 178.15 284.672C248.94 276.169 287.002 244.325 287.002 244.325L250.087 211.013C250.07 211.019 222.048 236.05 180.145 250.351Z" fill="#EAACAD"/>
<path d="M358.108 321.202C358.108 321.202 425.039 401.948 538.274 377.026L583.006 216.359C583.006 216.359 542.298 241.38 505.857 234.642C477.324 229.358 461.516 237.744 461.516 237.744L358.108 321.202Z" fill="url(#paint1_linear_1305_2118)"/>
<path d="M264.467 263.622C275.486 259.287 284.334 256.048 294.878 249.751C294.878 249.751 325.195 289.646 358.215 329.669C370.63 331.454 439.194 289.686 465.423 235.97C423.725 206.461 399.285 170.67 399.285 170.67C399.285 170.67 406.615 168.615 411.849 168.498C411.796 158.861 411.329 138.791 404.259 114.217C404.259 114.217 372.818 118.196 354.904 127.542C319.224 146.125 308.774 161.592 265.713 194.526C252.486 204.649 233.185 216.811 233.185 216.811C233.185 216.811 245.519 246.462 264.467 263.622Z" fill="url(#paint2_linear_1305_2118)"/>
<path d="M280.762 104.844C280.762 104.844 276.456 88.1076 294.552 84.2785C312.649 80.4495 340.69 80.1378 343.79 57.8686C343.79 57.8686 361.076 67.7954 371.291 81.6643C371.291 81.6643 363.17 108.18 341.781 107.491C320.386 106.784 301.624 93.2549 288.783 106.408L280.762 104.844Z" fill="url(#paint3_linear_1305_2118)"/>
<path d="M303.611 144.617C303.611 144.617 311.239 150.245 318.021 154.723C318.021 154.723 314.19 173.312 300.679 184.064L282.014 166.275C278.66 167.908 272.98 170.995 268.702 170.469C264.104 169.887 256.122 158.577 256.122 158.577C256.122 158.577 252.075 157.798 251.303 156.905C250.583 156.049 252.891 152.754 252.891 152.754C249.682 147.677 245.953 140.146 245.953 140.146C245.953 140.146 261.076 123.782 277.688 125.764C294.301 127.746 303.611 144.617 303.611 144.617Z" fill="#EAACAD"/>
<path d="M302.704 146.77C293.57 154.43 283.91 143.38 283.91 143.38C283.91 143.38 285.131 137.097 281.243 134.602C276.154 131.329 274.135 136.275 274.135 136.275C274.135 136.275 278.077 142.033 272.278 144.049C260.179 148.262 247.885 144.867 242.978 138.889C236.197 130.62 246.456 102.547 273.889 100.906C299.849 99.3585 316.125 135.503 302.704 146.77Z" fill="url(#paint4_linear_1305_2118)"/>
</g>
<defs>
<linearGradient id="paint0_linear_1305_2118" x1="170.492" y1="86.6349" x2="108.134" y2="338.501" gradientUnits="userSpaceOnUse">
<stop stop-color="#0E3252"/>
<stop offset="0.1304" stop-color="#213653"/>
<stop offset="0.3947" stop-color="#524054"/>
<stop offset="0.7652" stop-color="#A05056"/>
<stop offset="1" stop-color="#D55B58"/>
</linearGradient>
<linearGradient id="paint1_linear_1305_2118" x1="397.363" y1="245.871" x2="608.03" y2="336.917" gradientUnits="userSpaceOnUse">
<stop offset="0.145" stop-color="#0E3252"/>
<stop offset="1" stop-color="#0C3050"/>
</linearGradient>
<linearGradient id="paint2_linear_1305_2118" x1="465.22" y1="195.93" x2="304.981" y2="243.662" gradientUnits="userSpaceOnUse">
<stop stop-color="#0C3050"/>
<stop offset="0.149" stop-color="#32516C"/>
<stop offset="0.3266" stop-color="#587288"/>
<stop offset="0.5031" stop-color="#768C9E"/>
<stop offset="0.6761" stop-color="#8C9EAD"/>
<stop offset="0.8437" stop-color="#99A9B7"/>
<stop offset="1" stop-color="#9DADBA"/>
</linearGradient>
<linearGradient id="paint3_linear_1305_2118" x1="273.298" y1="134.991" x2="317.83" y2="98.4142" gradientUnits="userSpaceOnUse">
<stop offset="0.145" stop-color="#0E3252"/>
<stop offset="1" stop-color="#0C3050"/>
</linearGradient>
<linearGradient id="paint4_linear_1305_2118" x1="288.111" y1="173.23" x2="267.936" y2="113.788" gradientUnits="userSpaceOnUse">
<stop offset="0.145" stop-color="#0E3252"/>
<stop offset="1" stop-color="#0C3050"/>
</linearGradient>
<clipPath id="clip0_1305_2118">
<rect width="537" height="366" fill="white" transform="translate(0 180.771) rotate(-19.6718)"/>
</clipPath>
</defs>
</svg>
