<svg width="510" height="604" viewBox="0 0 510 604" fill="none" xmlns="http://www.w3.org/2000/svg">
<g clip-path="url(#clip0_1305_2109)">
<path d="M238.786 353.814L427.72 406.023L449.208 328.285C441.673 327.044 433.949 328.227 426.875 331.32C419.273 334.635 410.38 335.182 401.794 332.055C386.816 326.572 377.593 310.901 380.117 295.163C383.365 274.927 403.271 262.545 422.473 267.837C430.379 270.026 436.831 274.844 441.166 281.097C445.454 287.292 451.569 291.871 458.51 294.688L479.972 217.029L402.341 195.577C405.158 188.632 409.737 182.515 415.931 178.224C422.184 173.887 427.001 167.432 429.191 159.523C434.505 140.321 422.105 120.425 401.882 117.161C386.13 114.633 370.461 123.862 364.996 138.852C361.849 147.435 362.393 156.33 365.726 163.94C368.816 171.015 369.998 178.741 368.755 186.279L291.045 164.801L238.786 353.814Z" fill="url(#paint0_linear_1305_2109)"/>
<path d="M158.029 283.57L133.95 296.662C133.95 296.662 135.705 336.686 165.623 323.529L189.751 291.747C189.751 291.747 201.455 290.794 205.522 287.63C209.908 284.22 211.234 267.662 211.234 267.662C211.234 267.662 214.945 264.384 215.173 262.996C215.401 261.674 210.988 259.669 210.988 259.669C211.191 252.452 210.424 242.417 210.424 242.417C210.424 242.417 184.798 234.802 168.887 247.027C152.989 259.278 158.029 283.57 158.029 283.57Z" fill="#EAACAD"/>
<path d="M232.304 421.871C232.304 421.871 285.618 418.731 333.068 382.052C372.229 351.781 403.172 309.563 401.148 306.363C399.15 303.149 390.808 315.492 390.808 315.492C390.808 315.492 403.04 295.851 400.207 293.612C397.373 291.372 385.372 308.254 385.372 308.254C385.372 308.254 395.598 291.064 393.101 289.608C390.604 288.153 378.54 302.856 378.54 302.856C378.54 302.856 386.379 290.045 384.327 288.493C381.31 286.216 367.963 308.377 365.745 308.429C365.745 308.429 367.053 298.514 364.328 298.381C361.734 298.246 358.892 310.633 353.52 318.065C336.332 341.806 252.177 358.942 232.786 355.596L232.304 421.871Z" fill="#EAACAD"/>
<path d="M92.4409 184.335C92.4409 184.335 123.455 133.681 181.049 117.001C224.055 104.556 278.283 105.699 279.758 109.181C281.234 112.663 266.354 112.444 266.354 112.444C266.354 112.444 289.462 113.647 289.659 117.243C289.876 120.844 269.172 121.044 269.172 121.044C269.172 121.044 289.126 122.5 288.876 125.385C288.632 128.25 269.669 129.75 269.669 129.75C269.669 129.75 284.662 130.638 284.769 133.223C284.909 136.997 259.098 135.252 257.799 137.059C257.799 137.059 266.677 141.653 265.232 143.98C263.872 146.181 252.055 141.102 242.925 141.572C172.933 145.137 143.056 219.135 143.056 219.135L92.4409 184.335Z" fill="#EAACAD"/>
<path d="M-80.1896 368.743C-47.5395 430.588 49.8621 503.43 54.8784 504.233C106.766 481.841 159.477 422.999 159.477 422.999C211.595 432.752 254.748 424.736 254.748 424.736C263.932 391.035 254.671 348.797 254.671 348.797C254.671 348.797 193.86 352.889 158.741 314.146C106.077 256.058 150.098 215.465 150.098 215.465C150.098 215.465 139.009 190.126 98.2941 166.984C98.2941 166.984 58.7199 200.785 32.7397 268.687C32.7397 268.687 7.24449 313.351 -80.1896 368.743Z" fill="url(#paint1_linear_1305_2109)"/>
<path d="M158.225 287.644C171.956 284.247 173.271 269.015 173.271 269.015C173.271 269.015 168.181 263.283 170.659 258.344C173.915 251.868 179.018 255.729 179.018 255.729C179.018 255.729 178.473 264.079 185.683 262.6C200.75 259.522 211.235 246.275 211.482 240.14C211.888 229.915 198.451 210.667 172.257 212.223C163.37 212.75 130.024 222.191 126.036 259.26C126.036 259.26 56.8742 231.588 10.303 280.736C-44.6691 338.744 95.3504 358.049 130.46 275.898C130.433 275.911 144.756 290.973 158.225 287.644Z" fill="url(#paint2_linear_1305_2109)"/>
</g>
<defs>
<linearGradient id="paint0_linear_1305_2109" x1="214.506" y1="145.396" x2="411.372" y2="307.273" gradientUnits="userSpaceOnUse">
<stop stop-color="#0E3252"/>
<stop offset="0.1304" stop-color="#213653"/>
<stop offset="0.3947" stop-color="#524054"/>
<stop offset="0.7652" stop-color="#A05056"/>
<stop offset="1" stop-color="#D55B58"/>
</linearGradient>
<linearGradient id="paint1_linear_1305_2109" x1="62.2619" y1="448.203" x2="158.59" y2="250.079" gradientUnits="userSpaceOnUse">
<stop stop-color="#0C3050"/>
<stop offset="0.149" stop-color="#32516C"/>
<stop offset="0.3266" stop-color="#587288"/>
<stop offset="0.5031" stop-color="#768C9E"/>
<stop offset="0.6761" stop-color="#8C9EAD"/>
<stop offset="0.8437" stop-color="#99A9B7"/>
<stop offset="1" stop-color="#9DADBA"/>
</linearGradient>
<linearGradient id="paint2_linear_1305_2109" x1="212.066" y1="341.021" x2="58.798" y2="242.327" gradientUnits="userSpaceOnUse">
<stop offset="0.145" stop-color="#0E3252"/>
<stop offset="1" stop-color="#0C3050"/>
</linearGradient>
<clipPath id="clip0_1305_2109">
<rect width="495" height="475" fill="white" transform="translate(38.1738) rotate(17.7961)"/>
</clipPath>
</defs>
</svg>
