<svg width="795" height="773" viewBox="0 0 795 773" fill="none" xmlns="http://www.w3.org/2000/svg">
<g clip-path="url(#clip0_1305_2243)">
<path d="M227.65 316.443C247.419 316.443 263.446 300.423 263.446 280.662C263.446 260.901 247.419 244.881 227.65 244.881C207.88 244.881 191.854 260.901 191.854 280.662C191.854 300.423 207.88 316.443 227.65 316.443Z" fill="#0E3252"/>
<path d="M499.98 279.476H287.846V373.744H499.98V279.476Z" fill="url(#paint0_linear_1305_2243)"/>
<path d="M347.123 315.078V337.516L357.473 317.336L358.417 315.461L369.966 337.822H369.979V315.078H347.123Z" fill="#FFFFFD"/>
<path d="M356.693 319.772L347.441 337.822H366.022L356.693 319.772Z" fill="#FFFFFD"/>
<path d="M384.795 329.391H379.065L378.274 332.082H373.131L379.269 315.767H384.769L390.908 332.082H385.624L384.795 329.391ZM383.748 325.87L381.949 320.002L380.162 325.87H383.748Z" fill="#FFFFFD"/>
<path d="M392.477 315.78H400.861C402.686 315.78 404.051 316.214 404.957 317.081C405.863 317.948 406.323 319.186 406.323 320.78C406.323 322.426 405.825 323.714 404.843 324.645C403.847 325.577 402.341 326.036 400.312 326.036H397.556V332.095H392.489V315.78H392.477ZM397.543 322.732H398.781C399.751 322.732 400.44 322.566 400.835 322.222C401.231 321.89 401.422 321.456 401.422 320.921C401.422 320.41 401.256 319.977 400.912 319.619C400.567 319.262 399.929 319.084 398.985 319.084H397.556V322.732H397.543Z" fill="#FFFFFD"/>
<path d="M408.953 315.78H422.468V319.262H414.007V321.852H421.855V325.181H414.007V328.396H422.71V332.095H408.953V315.78Z" fill="#FFFFFD"/>
<path d="M436.3 325.411L440.715 326.75C440.422 327.987 439.95 329.021 439.311 329.85C438.673 330.679 437.882 331.304 436.938 331.725C435.993 332.146 434.781 332.363 433.326 332.363C431.552 332.363 430.098 332.108 428.975 331.585C427.852 331.074 426.882 330.169 426.065 328.868C425.248 327.566 424.84 325.908 424.84 323.88C424.84 321.176 425.554 319.109 426.997 317.655C428.439 316.201 430.468 315.486 433.097 315.486C435.151 315.486 436.772 315.907 437.946 316.736C439.12 317.566 440.001 318.841 440.562 320.563L436.108 321.558C435.955 321.061 435.789 320.704 435.623 320.474C435.343 320.091 434.998 319.798 434.59 319.581C434.181 319.377 433.722 319.275 433.224 319.275C432.076 319.275 431.208 319.734 430.595 320.653C430.136 321.329 429.906 322.4 429.906 323.867C429.906 325.679 430.187 326.916 430.736 327.579C431.284 328.255 432.063 328.587 433.046 328.587C434.015 328.587 434.743 328.319 435.228 327.771C435.713 327.235 436.07 326.444 436.3 325.411Z" fill="#FFFFFD"/>
<path d="M373.131 333.651H374.356V334.493H373.131V333.651ZM373.131 334.876H374.356V338.078H373.131V334.876Z" fill="#FFFFFD"/>
<path d="M379.359 334.876H380.508V335.399C380.674 335.182 380.852 335.029 381.031 334.94C381.21 334.85 381.414 334.799 381.669 334.799C382.014 334.799 382.282 334.901 382.473 335.105C382.665 335.31 382.767 335.616 382.767 336.049V338.09H381.529V336.33C381.529 336.126 381.491 335.986 381.414 335.896C381.337 335.807 381.235 335.769 381.095 335.769C380.942 335.769 380.827 335.82 380.738 335.935C380.648 336.049 380.597 336.254 380.597 336.547V338.09H379.372V334.876H379.359Z" fill="#FFFFFD"/>
<path d="M386.467 334.876H387.743L388.368 336.904L389.019 334.876H390.257L388.891 338.078H387.807L386.467 334.876Z" fill="#FFFFFD"/>
<path d="M397.518 336.777H395.055C395.081 336.968 395.132 337.121 395.221 337.223C395.336 337.363 395.489 337.427 395.681 337.427C395.795 337.427 395.923 337.402 396.025 337.338C396.089 337.3 396.166 337.236 396.242 337.134L397.454 337.249C397.263 337.567 397.046 337.797 396.778 337.937C396.51 338.078 396.14 338.141 395.655 338.141C395.234 338.141 394.902 338.078 394.647 337.963C394.404 337.848 394.2 337.657 394.047 337.389C393.881 337.134 393.805 336.828 393.805 336.47C393.805 335.973 393.971 335.565 394.29 335.259C394.609 334.952 395.055 334.799 395.617 334.799C396.076 334.799 396.434 334.863 396.702 335.003C396.97 335.144 397.174 335.348 397.314 335.603C397.454 335.871 397.518 336.215 397.518 336.636V336.777ZM396.268 336.19C396.242 335.947 396.178 335.782 396.076 335.679C395.974 335.577 395.834 335.526 395.668 335.526C395.476 335.526 395.311 335.603 395.196 335.756C395.119 335.858 395.068 335.998 395.055 336.19H396.268Z" fill="#FFFFFD"/>
<path d="M401.27 337.185L402.495 337.07C402.546 337.21 402.61 337.312 402.712 337.376C402.801 337.44 402.929 337.465 403.069 337.465C403.235 337.465 403.362 337.427 403.452 337.363C403.528 337.312 403.554 337.249 403.554 337.172C403.554 337.083 403.503 337.019 403.414 336.968C403.35 336.93 403.171 336.891 402.89 336.84C402.469 336.764 402.163 336.7 401.997 336.636C401.831 336.572 401.691 336.47 401.576 336.317C401.461 336.164 401.41 335.998 401.41 335.807C401.41 335.59 401.474 335.412 401.589 335.259C401.716 335.105 401.882 334.991 402.099 334.914C402.316 334.838 402.61 334.799 402.967 334.799C403.35 334.799 403.63 334.825 403.809 334.889C403.988 334.952 404.141 335.042 404.269 335.156C404.396 335.284 404.486 335.45 404.575 335.654L403.414 335.769C403.388 335.667 403.337 335.59 403.26 335.539C403.158 335.475 403.043 335.437 402.916 335.437C402.775 335.437 402.673 335.463 402.61 335.514C402.546 335.565 402.52 335.628 402.52 335.692C402.52 335.769 402.558 335.833 402.635 335.871C402.712 335.909 402.89 335.947 403.158 335.986C403.567 336.037 403.873 336.1 404.064 336.177C404.269 336.254 404.422 336.381 404.524 336.534C404.626 336.687 404.677 336.853 404.677 337.044C404.677 337.236 404.626 337.414 404.511 337.58C404.396 337.759 404.217 337.899 403.988 338.001C403.745 338.103 403.414 338.154 403.005 338.154C402.418 338.154 401.997 338.065 401.754 337.899C401.499 337.733 401.333 337.491 401.27 337.185Z" fill="#FFFFFD"/>
<path d="M410.765 333.651V334.876H411.441V335.782H410.765V336.917C410.765 337.057 410.777 337.147 410.803 337.185C410.841 337.249 410.918 337.287 411.02 337.287C411.109 337.287 411.237 337.261 411.403 337.21L411.492 338.065C411.186 338.129 410.905 338.167 410.637 338.167C410.331 338.167 410.101 338.129 409.961 338.052C409.82 337.976 409.705 337.848 409.642 337.695C409.578 337.529 409.539 337.274 409.539 336.917V335.794H409.08V334.889H409.539V334.302L410.765 333.651Z" fill="#FFFFFD"/>
<path d="M414.86 334.876H416.009V335.348C416.175 335.157 416.341 335.016 416.507 334.927C416.673 334.838 416.877 334.799 417.119 334.799C417.374 334.799 417.579 334.85 417.732 334.94C417.885 335.029 418 335.169 418.102 335.348C418.293 335.144 418.472 334.991 418.625 334.927C418.778 334.85 418.982 334.812 419.212 334.812C419.557 334.812 419.825 334.914 420.016 335.118C420.207 335.322 420.31 335.641 420.31 336.075V338.09H419.072V336.266C419.072 336.126 419.046 336.011 418.982 335.947C418.906 335.833 418.804 335.782 418.676 335.782C418.536 335.782 418.421 335.833 418.332 335.935C418.242 336.037 418.204 336.203 418.204 336.445V338.103H416.966V336.343C416.966 336.203 416.953 336.1 416.941 336.049C416.915 335.973 416.864 335.909 416.8 335.858C416.736 335.807 416.66 335.782 416.57 335.782C416.43 335.782 416.315 335.833 416.226 335.947C416.137 336.049 416.086 336.228 416.086 336.47V338.103H414.848V334.876H414.86Z" fill="#FFFFFD"/>
<path d="M426.755 336.777H424.292C424.317 336.968 424.368 337.121 424.458 337.223C424.572 337.363 424.725 337.427 424.917 337.427C425.032 337.427 425.159 337.402 425.262 337.338C425.325 337.3 425.402 337.236 425.478 337.134L426.691 337.249C426.499 337.567 426.282 337.797 426.014 337.937C425.746 338.078 425.376 338.141 424.891 338.141C424.47 338.141 424.138 338.078 423.883 337.963C423.641 337.848 423.437 337.657 423.283 337.389C423.118 337.134 423.041 336.828 423.041 336.47C423.041 335.973 423.207 335.565 423.526 335.259C423.845 334.952 424.292 334.799 424.853 334.799C425.313 334.799 425.67 334.863 425.938 335.003C426.206 335.144 426.41 335.348 426.55 335.603C426.691 335.871 426.755 336.215 426.755 336.636V336.777ZM425.504 336.19C425.478 335.947 425.415 335.782 425.313 335.679C425.21 335.577 425.07 335.526 424.904 335.526C424.713 335.526 424.547 335.603 424.432 335.756C424.355 335.858 424.304 335.998 424.292 336.19H425.504Z" fill="#FFFFFD"/>
<path d="M430.506 334.876H431.654V335.399C431.82 335.182 431.999 335.029 432.178 334.94C432.356 334.85 432.56 334.799 432.816 334.799C433.16 334.799 433.428 334.901 433.62 335.105C433.811 335.31 433.913 335.616 433.913 336.049V338.09H432.675V336.33C432.675 336.126 432.637 335.986 432.56 335.896C432.484 335.807 432.382 335.769 432.241 335.769C432.088 335.769 431.973 335.82 431.884 335.935C431.795 336.049 431.744 336.254 431.744 336.547V338.09H430.519V334.876H430.506Z" fill="#FFFFFD"/>
<path d="M439.989 333.651V334.876H440.666V335.782H439.989V336.917C439.989 337.057 440.002 337.147 440.027 337.185C440.066 337.249 440.142 337.287 440.244 337.287C440.334 337.287 440.461 337.261 440.627 337.21L440.717 338.065C440.41 338.129 440.13 338.167 439.862 338.167C439.555 338.167 439.326 338.129 439.185 338.052C439.045 337.976 438.93 337.848 438.866 337.695C438.802 337.529 438.764 337.274 438.764 336.917V335.794H438.305V334.889H438.764V334.302L439.989 333.651Z" fill="#FFFFFD"/>
<path d="M687.012 478.229H521.381V573.799H687.012V478.229Z" fill="url(#paint1_linear_1305_2243)"/>
<path d="M521.381 373.744H317.031V573.8H521.381V373.744Z" fill="#0E3252"/>
<path d="M123.656 348.614V464.364H223.387H323.119V348.614H123.656Z" fill="url(#paint2_linear_1305_2243)"/>
<path d="M213.485 409.335H207.334L206.479 412.231H200.953L207.538 394.717H213.447L220.032 412.231H214.365L213.485 409.335ZM212.362 405.547L210.422 399.245L208.508 405.547H212.362Z" fill="#FFFFFD"/>
<path d="M221.729 394.703H230.725C232.691 394.703 234.158 395.175 235.128 396.106C236.098 397.037 236.596 398.364 236.596 400.086C236.596 401.859 236.06 403.237 235 404.232C233.941 405.227 232.308 405.724 230.126 405.724H227.165V412.217H221.729V394.703ZM227.165 402.178H228.492C229.539 402.178 230.266 402 230.687 401.63C231.108 401.273 231.325 400.801 231.325 400.239C231.325 399.691 231.146 399.219 230.776 398.836C230.406 398.453 229.717 398.262 228.709 398.262H227.165V402.178Z" fill="#FFFFFD"/>
<path d="M239.417 394.703H253.927V398.441H244.841V401.222H253.263V404.793H244.841V408.25H254.182V412.217H239.404V394.703H239.417Z" fill="#FFFFFD"/>
<path d="M268.767 405.048L273.514 406.477C273.195 407.803 272.697 408.913 272.008 409.806C271.319 410.699 270.477 411.375 269.456 411.822C268.435 412.281 267.146 412.498 265.577 412.498C263.675 412.498 262.118 412.217 260.906 411.668C259.694 411.12 258.66 410.138 257.779 408.747C256.899 407.357 256.465 405.571 256.465 403.402C256.465 400.507 257.231 398.274 258.775 396.718C260.319 395.162 262.501 394.384 265.321 394.384C267.529 394.384 269.265 394.83 270.528 395.723C271.791 396.616 272.736 397.981 273.348 399.831L268.563 400.889C268.397 400.354 268.218 399.971 268.04 399.716C267.733 399.308 267.363 398.989 266.929 398.759C266.495 398.542 265.998 398.427 265.462 398.427C264.237 398.427 263.292 398.925 262.641 399.907C262.144 400.634 261.901 401.795 261.901 403.351C261.901 405.29 262.195 406.617 262.782 407.344C263.369 408.058 264.198 408.428 265.27 408.428C266.304 408.428 267.082 408.135 267.618 407.561C268.142 407 268.524 406.158 268.767 405.048Z" fill="#FFFFFD"/>
<path d="M173.273 394.154V418.404L184.453 396.591L185.486 394.563L197.954 418.736H197.967V394.154H173.273Z" fill="#FFFFFD"/>
<path d="M183.622 399.231L173.617 418.736H193.704L183.622 399.231Z" fill="#FFFFFD"/>
<path d="M200.877 417.575L201.936 417.511C201.962 417.677 202 417.818 202.077 417.907C202.191 418.047 202.357 418.124 202.574 418.124C202.727 418.124 202.855 418.085 202.944 418.009C203.034 417.932 203.072 417.843 203.072 417.754C203.072 417.664 203.034 417.575 202.944 417.499C202.868 417.422 202.676 417.358 202.37 417.295C201.885 417.18 201.528 417.039 201.324 416.861C201.119 416.682 201.005 416.453 201.005 416.159C201.005 415.981 201.056 415.802 201.17 415.636C201.273 415.47 201.438 415.343 201.655 415.254C201.872 415.164 202.166 415.113 202.536 415.113C202.995 415.113 203.353 415.203 203.595 415.368C203.838 415.534 203.978 415.815 204.029 416.185L202.983 416.249C202.957 416.083 202.893 415.968 202.804 415.891C202.715 415.815 202.587 415.777 202.434 415.777C202.306 415.777 202.204 415.802 202.14 415.853C202.077 415.904 202.038 415.981 202.038 416.057C202.038 416.108 202.064 416.172 202.115 416.21C202.166 416.261 202.293 416.3 202.485 416.338C202.97 416.44 203.314 416.555 203.531 416.657C203.736 416.759 203.901 416.899 203.991 417.052C204.093 417.205 204.131 417.384 204.131 417.588C204.131 417.818 204.067 418.034 203.94 418.226C203.812 418.417 203.633 418.57 203.404 418.672C203.174 418.774 202.881 418.825 202.536 418.825C201.923 418.825 201.502 418.71 201.26 418.468C201.043 418.239 200.915 417.932 200.877 417.575Z" fill="#FFFFFD"/>
<path d="M209.02 415.164H212.006V415.929H210.143V416.503H211.878V417.243H210.143V417.958H212.07V418.774H209.032V415.164H209.02Z" fill="#FFFFFD"/>
<path d="M219.369 417.295L220.338 417.588C220.275 417.856 220.173 418.085 220.032 418.277C219.892 418.455 219.713 418.596 219.509 418.698C219.305 418.787 219.037 418.838 218.705 418.838C218.309 418.838 217.99 418.787 217.748 418.672C217.505 418.557 217.288 418.353 217.11 418.073C216.931 417.792 216.842 417.422 216.842 416.976C216.842 416.376 216.995 415.917 217.314 415.598C217.633 415.279 218.08 415.113 218.654 415.113C219.113 415.113 219.471 415.203 219.726 415.394C219.981 415.573 220.185 415.853 220.3 416.236L219.318 416.453C219.279 416.338 219.241 416.261 219.215 416.21C219.152 416.121 219.075 416.057 218.986 416.019C218.896 415.968 218.794 415.955 218.679 415.955C218.424 415.955 218.233 416.057 218.105 416.261C218.003 416.414 217.952 416.644 217.952 416.976C217.952 417.371 218.016 417.652 218.131 417.792C218.246 417.945 218.424 418.009 218.641 418.009C218.858 418.009 219.011 417.945 219.126 417.83C219.241 417.69 219.318 417.511 219.369 417.295Z" fill="#FFFFFD"/>
<path d="M227.549 415.164H228.66V417.307C228.66 417.524 228.621 417.715 228.557 417.907C228.494 418.098 228.392 418.264 228.251 418.404C228.111 418.544 227.958 418.647 227.805 418.698C227.588 418.774 227.332 418.812 227.026 418.812C226.847 418.812 226.656 418.8 226.452 418.774C226.248 418.749 226.069 418.698 225.929 418.634C225.788 418.557 225.661 418.455 225.546 418.328C225.431 418.187 225.354 418.06 225.303 417.907C225.239 417.677 225.201 417.473 225.201 417.294V415.151H226.311V417.345C226.311 417.537 226.362 417.69 226.477 417.805C226.592 417.919 226.733 417.97 226.937 417.97C227.128 417.97 227.281 417.919 227.383 417.805C227.498 417.69 227.549 417.537 227.549 417.345V415.164Z" fill="#FFFFFD"/>
<path d="M233.725 418.761V415.164H235.575C235.92 415.164 236.188 415.19 236.366 415.253C236.545 415.317 236.698 415.419 236.8 415.585C236.915 415.751 236.966 415.942 236.966 416.172C236.966 416.376 236.928 416.542 236.838 416.695C236.749 416.835 236.634 416.963 236.481 417.052C236.392 417.103 236.251 417.154 236.086 417.192C236.213 417.231 236.315 417.282 236.379 417.32C236.417 417.345 236.481 417.409 236.558 417.511C236.634 417.613 236.685 417.677 236.711 417.741L237.247 418.787H235.983L235.384 417.69C235.307 417.55 235.243 417.46 235.179 417.409C235.103 417.358 235.014 417.32 234.911 417.32H234.809V418.787H233.725V418.761ZM234.848 416.618H235.32C235.371 416.618 235.473 416.606 235.613 416.567C235.69 416.555 235.754 416.516 235.792 416.452C235.843 416.389 235.869 416.325 235.869 416.248C235.869 416.134 235.83 416.044 235.754 415.98C235.677 415.917 235.537 415.891 235.333 415.891H234.848V416.618Z" fill="#FFFFFD"/>
<path d="M241.982 415.164H243.093V418.761H241.982V415.164Z" fill="#FFFFFD"/>
<path d="M247.955 415.164H251.337V416.057H250.201V418.774H249.091V416.057H247.955V415.164Z" fill="#FFFFFD"/>
<path d="M256.211 415.164H257.321V418.761H256.211V415.164Z" fill="#FFFFFD"/>
<path d="M262.426 415.164H265.412V415.929H263.549V416.503H265.284V417.243H263.549V417.958H265.476V418.774H262.439V415.164H262.426Z" fill="#FFFFFD"/>
<path d="M270.186 417.575L271.245 417.511C271.27 417.677 271.309 417.818 271.385 417.907C271.5 418.047 271.666 418.124 271.883 418.124C272.036 418.124 272.164 418.085 272.253 418.009C272.342 417.932 272.381 417.843 272.381 417.754C272.381 417.664 272.342 417.575 272.253 417.499C272.176 417.422 271.985 417.358 271.679 417.295C271.194 417.18 270.836 417.039 270.632 416.861C270.428 416.682 270.313 416.453 270.313 416.159C270.313 415.981 270.364 415.802 270.479 415.636C270.581 415.47 270.747 415.343 270.964 415.254C271.181 415.164 271.474 415.113 271.845 415.113C272.304 415.113 272.661 415.203 272.904 415.368C273.146 415.534 273.287 415.815 273.338 416.185L272.291 416.249C272.266 416.083 272.202 415.968 272.113 415.891C272.023 415.815 271.896 415.777 271.742 415.777C271.615 415.777 271.513 415.802 271.449 415.853C271.385 415.904 271.347 415.981 271.347 416.057C271.347 416.108 271.372 416.172 271.423 416.21C271.474 416.261 271.602 416.3 271.793 416.338C272.278 416.44 272.623 416.555 272.84 416.657C273.044 416.759 273.21 416.899 273.299 417.052C273.401 417.205 273.44 417.384 273.44 417.588C273.44 417.818 273.376 418.034 273.248 418.226C273.121 418.417 272.942 418.57 272.712 418.672C272.483 418.774 272.189 418.825 271.845 418.825C271.232 418.825 270.811 418.71 270.568 418.468C270.351 418.239 270.224 417.932 270.186 417.575Z" fill="#FFFFFD"/>
<path d="M431.361 259.844H420.08V279.476H431.361V259.844Z" fill="url(#paint3_linear_1305_2243)"/>
<path d="M458.861 259.844H447.58V279.476H458.861V259.844Z" fill="url(#paint4_linear_1305_2243)"/>
<path d="M486.363 259.844H475.082V279.476H486.363V259.844Z" fill="url(#paint5_linear_1305_2243)"/>
<path d="M346.371 372.928C346.371 392.049 361.876 407.548 381.006 407.548C400.135 407.548 415.641 392.049 415.641 372.928H346.371Z" fill="#EFF2F3"/>
<path d="M640.805 573.799C640.805 561.119 630.532 550.851 617.847 550.851C605.162 550.851 594.889 561.119 594.889 573.799H640.805Z" fill="#D3676C"/>
<path d="M73.6577 480.845C111.04 480.845 141.345 450.553 141.345 413.186C141.345 375.819 111.04 345.527 73.6577 345.527C36.2752 345.527 5.9707 375.819 5.9707 413.186C5.9707 450.553 36.2752 480.845 73.6577 480.845Z" fill="url(#paint6_linear_1305_2243)"/>
<path d="M596.955 347.377L559.168 412.803L521.381 478.23H596.955H672.541L634.754 412.803L596.955 347.377Z" fill="#0E3252"/>
<path d="M72.3672 300.243L114.276 324.428L156.185 348.614V300.243V251.858L114.276 276.044L72.3672 300.243Z" fill="#0E3252"/>
<path d="M145.734 480.845H-0.857422V573.799H145.734V480.845Z" fill="#0E3252"/>
<path d="M216.293 573.799C216.293 558.007 229.106 545.2 244.904 545.2C260.703 545.2 273.516 558.007 273.516 573.799" fill="#EFF2F3"/>
<path d="M535.763 323.536C543.706 323.536 550.145 317.099 550.145 309.159C550.145 301.22 543.706 294.783 535.763 294.783C527.82 294.783 521.381 301.22 521.381 309.159C521.381 317.099 527.82 323.536 535.763 323.536Z" fill="url(#paint7_linear_1305_2243)"/>
<path d="M583.197 323.536C591.14 323.536 597.579 317.099 597.579 309.159C597.579 301.22 591.14 294.783 583.197 294.783C575.254 294.783 568.814 301.22 568.814 309.159C568.814 317.099 575.254 323.536 583.197 323.536Z" fill="url(#paint8_linear_1305_2243)"/>
<path d="M630.632 323.536C638.575 323.536 645.014 317.099 645.014 309.159C645.014 301.22 638.575 294.783 630.632 294.783C622.689 294.783 616.25 301.22 616.25 309.159C616.25 317.099 622.689 323.536 630.632 323.536Z" fill="url(#paint9_linear_1305_2243)"/>
<path d="M73.6543 391.342V380.065H2.57275V391.342H73.6543Z" fill="#EFF2F3"/>
<path d="M73.6543 418.832V407.556H2.57271V418.832H73.6543Z" fill="#EFF2F3"/>
<path d="M73.6543 446.322V435.046H2.57272V446.322H73.6543Z" fill="#EFF2F3"/>
<path d="M227.639 263.04L210.016 280.656L227.639 298.272L245.262 280.656L227.639 263.04Z" fill="#EFF2F3"/>
<path d="M-0.857422 534.498C10.4876 534.498 19.6758 525.313 19.6758 513.973C19.6758 502.633 10.4876 493.448 -0.857422 493.448V534.498Z" fill="#EFF2F3"/>
<path d="M396.701 456.392H390.844V489.8H396.701V456.392Z" fill="#FFFFFD"/>
<path d="M427.954 465.244C425.261 456.149 416.405 456.391 416.405 456.391H406.157H404.243H399.904V489.8H403.35H405.762H416.43C423.794 488.244 426.257 482.822 426.257 482.822C431.374 473.217 427.954 465.244 427.954 465.244ZM422.556 476.75C420.986 485.731 413.853 485.794 413.853 485.794H405.596V460.078H413.01C418.906 460.307 420.706 463.394 420.706 463.394C424.304 468.497 422.556 476.75 422.556 476.75Z" fill="#FFFFFD"/>
<path d="M428.847 455.422V459.134H433.058V483.052C433.058 483.052 432.828 489.341 427.494 488.665V489.8C427.494 489.8 432.611 491.471 436.095 484.736C436.095 484.736 437.104 482.491 437.104 481.304V455.422H428.847Z" fill="#FFFFFD"/>
<path d="M437.219 445.141H428.848V453.509H437.219V445.141Z" fill="#FFFFFD"/>
<path d="M447.555 445.141H439.184V453.509H447.555V445.141Z" fill="#FFFFFD"/>
<path d="M447.555 455.422H439.184V463.79H447.555V455.422Z" fill="#FFFFFD"/>
<path d="M391.916 493.984V502.276H390.844V493.984H391.916Z" fill="#FFFFFD"/>
<path d="M393.881 497.939C393.881 497.327 393.868 496.816 393.83 496.332H394.787L394.851 497.314H394.877C395.17 496.753 395.859 496.191 396.842 496.191C397.671 496.191 398.947 496.689 398.947 498.73V502.289H397.863V498.857C397.863 497.901 397.505 497.097 396.484 497.097C395.77 497.097 395.221 497.607 395.03 498.207C394.979 498.347 394.953 498.526 394.953 498.717V502.302H393.868V497.939H393.881Z" fill="#FFFFFD"/>
<path d="M400.963 496.331L402.137 499.673C402.328 500.209 402.494 500.706 402.622 501.204H402.66C402.801 500.706 402.966 500.222 403.171 499.673L404.332 496.331H405.468L403.132 502.288H402.099L399.84 496.331H400.963Z" fill="#FFFFFD"/>
<path d="M406.95 499.495C406.975 500.962 407.907 501.562 408.992 501.562C409.77 501.562 410.229 501.422 410.638 501.256L410.816 502.034C410.434 502.2 409.783 502.404 408.838 502.404C407.001 502.404 405.916 501.192 405.916 499.406C405.916 497.607 406.975 496.191 408.711 496.191C410.651 496.191 411.174 497.901 411.174 498.998C411.174 499.215 411.148 499.393 411.135 499.508H406.95V499.495ZM410.115 498.73C410.127 498.041 409.834 496.97 408.609 496.97C407.511 496.97 407.039 497.977 406.95 498.73H410.115Z" fill="#FFFFFD"/>
<path d="M412.359 501.179C412.678 501.383 413.239 501.613 413.788 501.613C414.579 501.613 414.949 501.217 414.949 500.733C414.949 500.222 414.643 499.929 413.839 499.636C412.767 499.253 412.269 498.666 412.269 497.952C412.269 496.995 413.048 496.204 414.324 496.204C414.924 496.204 415.46 496.37 415.792 496.574L415.524 497.365C415.294 497.212 414.86 497.021 414.311 497.021C413.673 497.021 413.316 497.39 413.316 497.837C413.316 498.334 413.673 498.551 414.452 498.845C415.485 499.24 416.009 499.75 416.009 500.643C416.009 501.689 415.192 502.429 413.775 502.429C413.124 502.429 412.525 502.263 412.104 502.021L412.359 501.179Z" fill="#FFFFFD"/>
<path d="M418.689 494.622V496.331H420.246V497.161H418.689V500.375C418.689 501.115 418.893 501.536 419.506 501.536C419.786 501.536 420.003 501.498 420.131 501.459L420.182 502.276C419.978 502.365 419.646 502.429 419.225 502.429C418.714 502.429 418.319 502.263 418.051 501.97C417.745 501.651 417.63 501.115 417.63 500.426V497.173H416.711V496.344H417.63V494.915L418.689 494.622Z" fill="#FFFFFD"/>
<path d="M421.459 497.939C421.459 497.327 421.446 496.816 421.408 496.332H422.353L422.404 497.288H422.442C422.774 496.727 423.322 496.191 424.318 496.191C425.135 496.191 425.747 496.689 426.002 497.391H426.028C426.207 497.059 426.449 496.804 426.692 496.612C427.049 496.344 427.444 496.191 428.006 496.191C428.797 496.191 429.958 496.714 429.958 498.781V502.289H428.899V498.921C428.899 497.773 428.478 497.084 427.61 497.084C426.998 497.084 426.513 497.544 426.334 498.067C426.283 498.22 426.245 498.411 426.245 498.602V502.276H425.186V498.704C425.186 497.76 424.765 497.072 423.948 497.072C423.271 497.072 422.774 497.607 422.608 498.156C422.544 498.322 422.518 498.5 422.518 498.679V502.276H421.459V497.939Z" fill="#FFFFFD"/>
<path d="M432.319 499.495C432.344 500.962 433.276 501.562 434.361 501.562C435.139 501.562 435.599 501.422 436.007 501.256L436.186 502.034C435.803 502.2 435.152 502.404 434.208 502.404C432.37 502.404 431.285 501.192 431.285 499.406C431.285 497.607 432.344 496.191 434.08 496.191C436.02 496.191 436.543 497.901 436.543 498.998C436.543 499.215 436.517 499.393 436.505 499.508H432.319V499.495ZM435.496 498.73C435.509 498.041 435.216 496.97 433.991 496.97C432.893 496.97 432.421 497.977 432.332 498.73H435.496Z" fill="#FFFFFD"/>
<path d="M437.883 497.939C437.883 497.327 437.87 496.816 437.832 496.332H438.789L438.853 497.314H438.878C439.172 496.753 439.861 496.191 440.844 496.191C441.673 496.191 442.949 496.689 442.949 498.73V502.289H441.865V498.857C441.865 497.901 441.507 497.097 440.486 497.097C439.772 497.097 439.223 497.607 439.032 498.207C438.981 498.347 438.955 498.526 438.955 498.717V502.302H437.87V497.939H437.883Z" fill="#FFFFFD"/>
<path d="M445.974 494.622V496.331H447.531V497.161H445.974V500.375C445.974 501.115 446.178 501.536 446.791 501.536C447.072 501.536 447.289 501.498 447.416 501.459L447.467 502.276C447.263 502.365 446.931 502.429 446.51 502.429C446 502.429 445.604 502.263 445.336 501.97C445.03 501.651 444.915 501.115 444.915 500.426V497.173H443.996V496.344H444.915V494.915L445.974 494.622Z" fill="#FFFFFD"/>
<path d="M146.806 487.784L139.098 500.285C139.098 500.285 150.583 518.424 160.996 504.329L163.753 483.128C163.753 483.128 168.947 479.569 169.993 477.018C171.129 474.262 167.326 466.213 167.326 466.213C167.326 466.213 168.181 463.7 167.913 462.986C167.658 462.31 165.08 462.552 165.08 462.552C163.255 459.146 160.218 454.682 160.218 454.682C160.218 454.682 146.257 457.973 142.122 467.897C137.975 477.834 146.806 487.784 146.806 487.784Z" fill="#EAACAD"/>
<path d="M214.607 530.658C214.607 530.658 236.608 516.281 247.902 489.021C257.218 466.52 260.102 440.956 258.456 440.076C256.81 439.196 256.274 446.505 256.274 446.505C256.274 446.505 256.695 435.139 254.934 434.871C253.173 434.604 252.177 444.745 252.177 444.745C252.177 444.745 252.33 434.91 250.914 434.897C249.497 434.897 247.94 444.107 247.94 444.107C247.94 444.107 248.157 436.721 246.894 436.555C245.056 436.326 244.776 449.044 243.844 449.605C243.844 449.605 241.981 445.051 240.781 445.663C239.645 446.237 241.458 452.22 240.985 456.71C239.454 471.048 207.703 498.933 198.617 502.25L214.607 530.658Z" fill="#EAACAD"/>
<path d="M96.7793 463.496C96.7793 463.496 97.6343 434.297 118.142 413.096C133.456 397.266 156.899 384.497 158.379 385.62C159.859 386.742 153.453 390.288 153.453 390.288C153.453 390.288 163.611 385.16 164.581 386.64C165.551 388.12 156.758 393.261 156.758 393.261C156.758 393.261 165.628 389 166.227 390.288C166.827 391.577 159.094 396.845 159.094 396.845C159.094 396.845 165.717 393.567 166.393 394.638C167.376 396.207 155.929 401.782 155.814 402.866C155.814 402.866 160.727 402.662 160.676 404.001C160.625 405.277 154.346 406.004 150.556 408.428C121.537 427.064 126.884 465.945 126.884 465.945L96.7793 463.496Z" fill="#EAACAD"/>
<path d="M79.4881 560.635C79.4881 560.635 79.2966 565.852 70.236 575.266C70.236 575.266 59.6567 580.369 48.9753 591.046C22.5207 617.502 38.613 636.623 -34 691.679L-17.1165 716.439C-17.1165 716.439 55.3433 685.084 86.7494 628.689C86.7494 628.689 81.5044 681.576 65.2717 712.395L101.782 731.874C101.782 731.874 147.52 660.847 154.424 592.908L79.4881 560.635Z" fill="url(#paint10_linear_1305_2243)"/>
<path d="M66.2793 575.546C95.35 593.953 150.633 611.327 152.955 610.447C169.635 588.213 183.774 548.937 183.774 548.937C208.417 540.352 224.879 526.384 224.879 526.384C220.566 509.75 206.26 493.996 206.26 493.996C206.26 493.996 181.299 510.604 156.822 502.67C120.12 490.769 128.989 462.679 128.989 462.679C128.989 462.679 118.065 454.579 95.0054 454.656C95.0054 454.656 86.3787 478.752 91.8916 514.074C91.9172 514.087 95.299 533.03 66.2793 575.546Z" fill="url(#paint11_linear_1305_2243)"/>
<path d="M148.872 490.909C154.168 485.36 150.021 476.954 150.021 476.954C150.021 476.954 146.129 475.653 145.963 472.681C145.746 468.803 149.153 469.236 149.153 469.236C149.153 469.236 151.118 473.267 154.092 470.652C160.281 465.218 161.289 456.416 160.102 453.342C156.874 444.961 144.584 439.566 133.495 448.406C123.451 456.404 131.938 468.535 118.666 472.209C104.73 476.074 107.908 492.287 104.743 495.616C101.578 498.946 88.2551 502.67 91.0116 518.45C93.7681 534.229 122.303 532.38 126.91 521.894C131.504 511.408 129.181 504.01 134.388 500.336C140.462 496.063 144.559 495.425 148.872 490.909Z" fill="#0E3252"/>
<path d="M670.997 599.886C670.997 599.886 739.028 679.497 795 725.356L777.249 752.871C777.249 752.871 695.295 725.751 659.435 665.019C659.435 665.019 668.585 717.511 687.153 750.728L647.822 773.013C647.822 773.013 599.456 711.222 590.051 637.21L670.997 599.886Z" fill="url(#paint12_linear_1305_2243)"/>
<path d="M532.7 482.682C514.477 461.2 515.268 445.765 513.06 446.02C511.848 446.161 512.754 453.317 512.754 453.317C512.754 453.317 510.368 445.229 509.015 445.357C507.662 445.497 508.76 454.299 508.76 454.299C508.76 454.299 506.82 444.336 505.174 444.745C503.515 445.153 505.25 455.817 505.25 455.817C505.25 455.817 503.783 447.577 502.073 448.074C501.256 448.316 501.409 454.503 502.264 460.524C502.264 460.524 498.755 458.955 498.295 459.822C497.351 461.596 503.974 466.647 503.974 466.647C505.876 475.908 509.181 487.529 514.005 497.109C526.728 522.379 548.997 534.115 548.997 534.115L563.634 501.114C563.634 501.114 542.31 494.009 532.7 482.682Z" fill="#EAACAD"/>
<path d="M612.612 513.131C612.612 513.131 582.253 513.475 551.013 493.346C551.013 493.346 533.874 507.352 527.863 521.001C527.863 521.001 541.888 537.839 553.641 543.796C553.641 543.809 604.458 545.391 612.612 513.131Z" fill="url(#paint13_linear_1305_2243)"/>
<path d="M579.433 479.927C579.433 479.927 572.35 488.358 569.696 492.134C569.696 492.134 566.761 490.234 565.165 491.854C563.57 493.474 567.539 497.173 567.539 497.173C567.539 497.173 563.596 504.482 564.987 508.424C566.378 512.353 574.086 517.187 577.786 517.736C577.786 517.736 580.951 531.64 581.168 533.898C581.168 533.898 594.874 538.273 605.989 525.326L598.958 512.302C598.958 512.302 604.879 503.997 602.85 496.089C600.808 488.193 590.893 479.187 579.433 479.927Z" fill="#EAACAD"/>
<path d="M609.026 501.969C607.112 514.649 593.24 517.863 587.715 513.947C582.189 510.031 585.711 503.768 585.711 503.768C585.711 503.768 588.187 505.209 590.126 502.722C591.773 500.617 589.412 498.64 589.412 498.64C589.412 498.64 585.277 501.191 583.784 499.176C582.291 497.147 584.881 493.946 584.881 493.946C584.881 493.946 581.296 493.295 574.889 483.23C571.137 477.324 580.326 461.315 598.996 468.561C617.666 475.806 601.497 480.118 601.497 480.118C601.497 480.118 612.089 481.649 611.528 484.71C610.966 487.772 605.402 487.21 605.402 487.21C605.402 487.21 610.545 491.854 609.026 501.969Z" fill="url(#paint14_linear_1305_2243)"/>
<path d="M520.717 569.028C520.717 569.028 495.768 556.068 481.041 531.92C470.041 513.883 464.234 487.452 465.625 486.342C467.016 485.232 468.765 492.044 468.765 492.044C468.765 492.044 466.455 481.38 468.063 480.831C469.684 480.283 472.325 489.684 472.325 489.684C472.325 489.684 470.513 480.423 471.853 480.181C473.193 479.939 476.217 488.383 476.217 488.383C476.217 488.383 474.763 481.444 475.924 481.087C477.621 480.551 480.033 492.516 481.003 492.886C481.003 492.886 481.998 488.281 483.236 488.651C484.41 489.008 483.696 494.965 484.908 499.111C488.775 512.39 523.448 533.362 532.598 534.956L520.717 569.028Z" fill="#EAACAD"/>
<path d="M529.905 533.247C529.905 533.247 519.389 553.644 519.096 570.125C519.096 570.125 541.645 579.565 564.31 579.743C566.99 579.271 582.725 622.63 584.064 640.105C585.468 646.751 651.688 645.489 672.833 600.472C676.853 589.68 630.695 518.769 615.164 513.105C607.15 510.158 600.948 538.541 529.905 533.247Z" fill="url(#paint15_linear_1305_2243)"/>
<path d="M532.867 362.569V374.79H593.229V362.569H532.867Z" fill="url(#paint16_linear_1305_2243)"/>
<path d="M498.371 21.4304L515.484 0L550.387 18.994C551.65 19.6828 551.65 21.507 550.374 22.183C546.278 24.3643 537.498 27.3748 524.328 23.3949C522.554 26.5457 519.019 37.9497 519.019 37.9497L498.371 21.4304Z" fill="#0E3252"/>
<path d="M524.341 23.4077C524.341 23.4077 523.499 9.94995 506.806 10.8811C501.472 17.5654 498.371 21.4433 498.371 21.4433L519.415 35.9981L524.341 23.4077Z" fill="#EAACAD"/>
<path d="M545.998 84.5862L566.187 66.0132L597.784 90.1096C598.933 90.9898 598.652 92.7884 597.287 93.2604C592.897 94.7912 583.772 96.4239 571.368 90.4796C569.135 93.3242 563.902 104.052 563.902 104.052L545.998 84.5862Z" fill="#0E3252"/>
<path d="M571.367 90.4923C571.367 90.4923 572.592 77.0727 555.951 75.4399C549.66 81.2313 546.01 84.5861 546.01 84.5861L564.578 102.19L571.367 90.4923Z" fill="#EAACAD"/>
<path d="M321.498 233.655C321.498 233.655 329.576 238.745 333.149 240.569C333.149 240.569 331.86 243.312 333.443 244.498C335.025 245.684 337.743 241.832 337.743 241.832C337.743 241.832 344.494 244.358 347.71 242.686C350.926 241.015 354.167 233.834 354.206 230.594C354.206 230.594 369.303 224.292 371.217 223.833C371.217 223.833 369.775 207.645 357.332 199.634L345.056 206.306C345.056 206.306 339.185 208.959 332.626 211.638" fill="#EAACAD"/>
<path d="M340.219 200.936C347.608 204.303 358.174 215.899 352.623 224.203C349.229 229.293 341.253 225.453 341.253 225.453C341.253 225.453 341.674 221.409 339.249 220.147C336.557 218.731 336.403 222.876 336.403 222.876C336.403 222.876 339.083 226.116 337.526 227.647C335.969 229.178 332.907 227.328 332.907 227.328C332.907 227.328 330.941 232.558 321.511 235.735C314.556 238.069 304.015 235.377 303.581 228.987C303.249 224.063 310.855 218.667 316.483 211.587C322.761 203.691 327.343 195.068 340.219 200.936Z" fill="#0E3252"/>
<path d="M410.381 135.522C410.381 135.522 453.374 97.5976 490.651 14.9502L527.723 38.4216C527.723 38.4216 522.491 81.2697 474.099 129.896C474.099 129.896 516.99 109.563 538.978 71.103L571.24 102.764C571.24 102.764 530.798 169.836 462.218 199.252L410.381 135.522Z" fill="url(#paint17_linear_1305_2243)"/>
<path d="M281.592 182.439C270.732 190.105 264.709 198.614 265.155 199.66C265.857 201.293 270.592 196.165 270.592 196.165C270.592 196.165 263.534 204.38 264.683 205.617C265.832 206.854 272.595 199.902 272.595 199.902C272.595 199.902 266.648 207.135 267.695 207.977C268.741 208.819 275.377 202.874 275.377 202.874C275.377 202.874 270.834 208.245 271.676 209.112C272.914 210.375 280.66 201.076 281.694 201.203C281.694 201.203 280.38 205.694 281.643 205.961C282.83 206.204 284.782 200.591 289.249 196.904L281.592 182.439Z" fill="#EAACAD"/>
<path d="M374.751 307.131C363.776 314.631 353.694 317.297 352.865 316.506C351.588 315.282 358.033 312.629 358.033 312.629C358.033 312.629 347.862 316.366 347.109 314.861C346.356 313.343 355.226 309.452 355.226 309.452C355.226 309.452 346.369 312.501 345.948 311.225C345.527 309.95 353.413 305.804 353.413 305.804C353.413 305.804 346.79 308.177 346.28 307.092C345.527 305.498 356.961 301.48 357.191 300.472C357.191 300.472 352.52 300.128 352.711 298.865C352.89 297.666 358.837 297.806 363.852 294.897L374.751 307.131Z" fill="#EAACAD"/>
<path d="M372.352 309.159C372.352 309.159 423.564 280.496 415.958 228.565C415.958 228.565 446.7 218.526 464.873 198.104C471.534 190.603 415.766 122.702 409.577 133.544C398.538 152.87 372.033 161.48 372.033 161.48C372.033 161.48 336.275 141.071 278.746 183.587C278.746 183.587 281.286 193.996 288.7 197.899C288.7 197.899 335.726 169.223 367.694 220.185C398.321 269.002 360.917 295.421 360.917 295.421C360.917 295.421 363.789 305.511 372.352 309.159Z" fill="#0E3252"/>
</g>
<defs>
<linearGradient id="paint0_linear_1305_2243" x1="378.839" y1="411.333" x2="400.716" y2="288.298" gradientUnits="userSpaceOnUse">
<stop stop-color="#0E3252"/>
<stop offset="0.00731987" stop-color="#103252"/>
<stop offset="0.2793" stop-color="#564357"/>
<stop offset="0.5241" stop-color="#8D505A"/>
<stop offset="0.7334" stop-color="#B55A5D"/>
<stop offset="0.8989" stop-color="#CE605E"/>
<stop offset="1" stop-color="#D7625F"/>
</linearGradient>
<linearGradient id="paint1_linear_1305_2243" x1="583.683" y1="594.655" x2="616.959" y2="483.208" gradientUnits="userSpaceOnUse">
<stop stop-color="#0E3252"/>
<stop offset="1" stop-color="#D7625F"/>
</linearGradient>
<linearGradient id="paint2_linear_1305_2243" x1="194.537" y1="476.094" x2="241.12" y2="363.621" gradientUnits="userSpaceOnUse">
<stop stop-color="#0E3252"/>
<stop offset="1" stop-color="#D7625F"/>
</linearGradient>
<linearGradient id="paint3_linear_1305_2243" x1="425.718" y1="286.424" x2="425.718" y2="257.045" gradientUnits="userSpaceOnUse">
<stop stop-color="#0C3050"/>
<stop offset="0.1609" stop-color="#36546F"/>
<stop offset="0.3312" stop-color="#5B748A"/>
<stop offset="0.5019" stop-color="#788D9F"/>
<stop offset="0.6711" stop-color="#8C9FAE"/>
<stop offset="0.8379" stop-color="#99A9B7"/>
<stop offset="0.9995" stop-color="#9DADBA"/>
</linearGradient>
<linearGradient id="paint4_linear_1305_2243" x1="453.219" y1="286.424" x2="453.219" y2="257.045" gradientUnits="userSpaceOnUse">
<stop stop-color="#0C3050"/>
<stop offset="0.1609" stop-color="#36546F"/>
<stop offset="0.3312" stop-color="#5B748A"/>
<stop offset="0.5019" stop-color="#788D9F"/>
<stop offset="0.6711" stop-color="#8C9FAE"/>
<stop offset="0.8379" stop-color="#99A9B7"/>
<stop offset="0.9995" stop-color="#9DADBA"/>
</linearGradient>
<linearGradient id="paint5_linear_1305_2243" x1="480.722" y1="286.424" x2="480.722" y2="257.045" gradientUnits="userSpaceOnUse">
<stop stop-color="#0C3050"/>
<stop offset="0.1609" stop-color="#36546F"/>
<stop offset="0.3312" stop-color="#5B748A"/>
<stop offset="0.5019" stop-color="#788D9F"/>
<stop offset="0.6711" stop-color="#8C9FAE"/>
<stop offset="0.8379" stop-color="#99A9B7"/>
<stop offset="0.9995" stop-color="#9DADBA"/>
</linearGradient>
<linearGradient id="paint6_linear_1305_2243" x1="46.385" y1="487.532" x2="93.9126" y2="357.857" gradientUnits="userSpaceOnUse">
<stop stop-color="#0E3252"/>
<stop offset="1" stop-color="#D7625F"/>
</linearGradient>
<linearGradient id="paint7_linear_1305_2243" x1="522.703" y1="324.433" x2="542.563" y2="301.19" gradientUnits="userSpaceOnUse">
<stop stop-color="#0C3050"/>
<stop offset="0.1609" stop-color="#36546F"/>
<stop offset="0.3312" stop-color="#5B748A"/>
<stop offset="0.5019" stop-color="#788D9F"/>
<stop offset="0.6711" stop-color="#8C9FAE"/>
<stop offset="0.8379" stop-color="#99A9B7"/>
<stop offset="0.9995" stop-color="#9DADBA"/>
</linearGradient>
<linearGradient id="paint8_linear_1305_2243" x1="569.927" y1="324.679" x2="589.787" y2="301.436" gradientUnits="userSpaceOnUse">
<stop stop-color="#EAACAD"/>
<stop offset="0.2908" stop-color="#E49392"/>
<stop offset="0.7546" stop-color="#DA6F6D"/>
<stop offset="1" stop-color="#D7625F"/>
</linearGradient>
<linearGradient id="paint9_linear_1305_2243" x1="619.02" y1="322.741" x2="638.88" y2="299.499" gradientUnits="userSpaceOnUse">
<stop stop-color="#0C3050"/>
<stop offset="0.1609" stop-color="#36546F"/>
<stop offset="0.3312" stop-color="#5B748A"/>
<stop offset="0.5019" stop-color="#788D9F"/>
<stop offset="0.6711" stop-color="#8C9FAE"/>
<stop offset="0.8379" stop-color="#99A9B7"/>
<stop offset="0.9995" stop-color="#9DADBA"/>
</linearGradient>
<linearGradient id="paint10_linear_1305_2243" x1="132.685" y1="582.08" x2="55.8924" y2="682.982" gradientUnits="userSpaceOnUse">
<stop stop-color="#0C3050"/>
<stop offset="0.1609" stop-color="#36546F"/>
<stop offset="0.3312" stop-color="#5B748A"/>
<stop offset="0.5019" stop-color="#788D9F"/>
<stop offset="0.6711" stop-color="#8C9FAE"/>
<stop offset="0.8379" stop-color="#99A9B7"/>
<stop offset="0.9995" stop-color="#9DADBA"/>
</linearGradient>
<linearGradient id="paint11_linear_1305_2243" x1="74.3395" y1="598.026" x2="146.131" y2="507.826" gradientUnits="userSpaceOnUse">
<stop stop-color="#9DADBA"/>
<stop offset="0.1731" stop-color="#AE949C"/>
<stop offset="0.3888" stop-color="#BF7B7F"/>
<stop offset="0.6015" stop-color="#CB6969"/>
<stop offset="0.8077" stop-color="#D35F5C"/>
<stop offset="1" stop-color="#D55B58"/>
</linearGradient>
<linearGradient id="paint12_linear_1305_2243" x1="645.216" y1="611.998" x2="704.47" y2="721.34" gradientUnits="userSpaceOnUse">
<stop stop-color="#0C3050"/>
<stop offset="0.1609" stop-color="#36546F"/>
<stop offset="0.3312" stop-color="#5B748A"/>
<stop offset="0.5019" stop-color="#788D9F"/>
<stop offset="0.6711" stop-color="#8C9FAE"/>
<stop offset="0.8379" stop-color="#99A9B7"/>
<stop offset="0.9995" stop-color="#9DADBA"/>
</linearGradient>
<linearGradient id="paint13_linear_1305_2243" x1="582.5" y1="540.388" x2="565.519" y2="508.064" gradientUnits="userSpaceOnUse">
<stop stop-color="#9DADBA"/>
<stop offset="0.1731" stop-color="#AE949C"/>
<stop offset="0.3888" stop-color="#BF7B7F"/>
<stop offset="0.6015" stop-color="#CB6969"/>
<stop offset="0.8077" stop-color="#D35F5C"/>
<stop offset="1" stop-color="#D55B58"/>
</linearGradient>
<linearGradient id="paint14_linear_1305_2243" x1="601.438" y1="516.7" x2="588.424" y2="465.277" gradientUnits="userSpaceOnUse">
<stop stop-color="#0C3050"/>
<stop offset="0.1609" stop-color="#36546F"/>
<stop offset="0.3312" stop-color="#5B748A"/>
<stop offset="0.5019" stop-color="#788D9F"/>
<stop offset="0.6711" stop-color="#8C9FAE"/>
<stop offset="0.8379" stop-color="#99A9B7"/>
<stop offset="0.9995" stop-color="#9DADBA"/>
</linearGradient>
<linearGradient id="paint15_linear_1305_2243" x1="654.655" y1="686.364" x2="581.731" y2="555.231" gradientUnits="userSpaceOnUse">
<stop stop-color="#9DADBA"/>
<stop offset="0.1731" stop-color="#AE949C"/>
<stop offset="0.3888" stop-color="#BF7B7F"/>
<stop offset="0.6015" stop-color="#CB6969"/>
<stop offset="0.8077" stop-color="#D35F5C"/>
<stop offset="1" stop-color="#D55B58"/>
</linearGradient>
<linearGradient id="paint16_linear_1305_2243" x1="549.312" y1="343.414" x2="579.266" y2="398.531" gradientUnits="userSpaceOnUse">
<stop stop-color="#0C3050"/>
<stop offset="0.1609" stop-color="#36546F"/>
<stop offset="0.3312" stop-color="#5B748A"/>
<stop offset="0.5019" stop-color="#788D9F"/>
<stop offset="0.6711" stop-color="#8C9FAE"/>
<stop offset="0.8379" stop-color="#99A9B7"/>
<stop offset="0.9995" stop-color="#9DADBA"/>
</linearGradient>
<linearGradient id="paint17_linear_1305_2243" x1="571.067" y1="109.514" x2="411.142" y2="105.449" gradientUnits="userSpaceOnUse">
<stop stop-color="#0C3050"/>
<stop offset="0.1609" stop-color="#36546F"/>
<stop offset="0.3312" stop-color="#5B748A"/>
<stop offset="0.5019" stop-color="#788D9F"/>
<stop offset="0.6711" stop-color="#8C9FAE"/>
<stop offset="0.8379" stop-color="#99A9B7"/>
<stop offset="0.9995" stop-color="#9DADBA"/>
</linearGradient>
<clipPath id="clip0_1305_2243">
<rect width="829" height="773" fill="white" transform="translate(-34)"/>
</clipPath>
</defs>
</svg>
