<svg width="84" height="22" viewBox="0 0 84 22" fill="none" xmlns="http://www.w3.org/2000/svg">
<path d="M0 0V20.9225L9.19703 2.10912L10.0389 0.358551L20.2961 21.2027H20.3076V0H0Z" fill="white"/>
<path d="M8.51338 4.38086L0.281738 21.2026H16.7996L8.51338 4.38086Z" fill="white"/>
<path d="M33.4779 13.3482H28.3924L27.6856 15.8581H23.1086L28.5591 0.654297H33.4463L38.8939 15.8581H34.202L33.4779 13.3482ZM32.547 10.061L30.9467 4.59535L29.3635 10.061H32.547Z" fill="white"/>
<path d="M40.2991 0.654297H47.7463C49.3668 0.654297 50.5822 1.05804 51.3895 1.86855C52.1969 2.67604 52.602 3.83004 52.602 5.32149C52.602 6.85512 52.1624 8.05732 51.2832 8.91905C50.404 9.78379 49.0594 10.2147 47.2522 10.2147H44.7985V15.8581H40.2991V0.654297ZM44.7985 7.13534H45.896C46.7608 7.13534 47.3671 6.97866 47.7147 6.66229C48.0653 6.34893 48.2377 5.94519 48.2377 5.45406C48.2377 4.978 48.0854 4.57124 47.7837 4.23981C47.4791 3.90838 46.9103 3.74266 46.0713 3.74266H44.7956V7.13534H44.7985Z" fill="white"/>
<path d="M54.9351 0.654297H66.9421V3.89934H59.4258V6.31579H66.399V9.4162H59.4258V12.4142H67.1604V15.8581H54.9351V0.654297Z" fill="white"/>
<path d="M79.2248 9.63559L83.1496 10.88C82.8852 12.034 82.4715 12.9981 81.9026 13.7725C81.3366 14.5468 80.6327 15.1314 79.7908 15.5261C78.9519 15.9208 77.8802 16.1166 76.5815 16.1166C75.007 16.1166 73.7198 15.8756 72.72 15.3965C71.7201 14.9174 70.8581 14.0708 70.1341 12.8626C69.4101 11.6543 69.0452 10.1056 69.0452 8.21947C69.0452 5.70358 69.683 3.77223 70.9587 2.41937C72.2344 1.06953 74.0387 0.391602 76.3746 0.391602C78.202 0.391602 79.6357 0.780283 80.6815 1.55463C81.7274 2.32898 82.5031 3.51913 83.0117 5.12207L79.0553 6.04405C78.9174 5.58005 78.7709 5.24259 78.6186 5.02866C78.3686 4.67011 78.0612 4.39291 77.6992 4.20008C77.3371 4.00724 76.932 3.91083 76.4838 3.91083C75.4696 3.91083 74.691 4.33868 74.1508 5.19438C73.7428 5.83013 73.5388 6.82744 73.5388 8.18934C73.5388 9.87362 73.783 11.0306 74.2715 11.6543C74.7599 12.278 75.4466 12.5914 76.3287 12.5914C77.1849 12.5914 77.8342 12.3383 78.2709 11.8351C78.7105 11.3289 79.0294 10.5968 79.2248 9.63559Z" fill="white"/>
<path d="M23.1086 17.3164H24.2005V18.0968H23.1086V17.3164ZM23.1086 18.4523H24.2005V21.4412H23.1086V18.4523Z" fill="white"/>
<path d="M28.6396 18.452H29.6568V18.9401C29.809 18.7413 29.9613 18.5997 30.1193 18.5153C30.2745 18.4309 30.4641 18.3857 30.6882 18.3857C30.9899 18.3857 31.2284 18.4791 31.3979 18.669C31.5703 18.8588 31.6536 19.148 31.6536 19.5427V21.444H30.5561V19.7989C30.5561 19.612 30.5245 19.4795 30.4584 19.4011C30.3923 19.3228 30.3003 19.2836 30.1797 19.2836C30.0475 19.2836 29.9412 19.3348 29.8579 19.4403C29.7746 19.5458 29.7343 19.7356 29.7343 20.0068V21.441H28.6425V18.452H28.6396Z" fill="white"/>
<path d="M34.9578 18.4521H36.0927L36.6443 20.3473L37.219 18.4521H38.3223L37.1098 21.4411H36.1415L34.9578 18.4521Z" fill="white"/>
<path d="M44.7814 20.23H42.592C42.6121 20.4138 42.6581 20.5524 42.7357 20.6397C42.842 20.7693 42.977 20.8326 43.1494 20.8326C43.2557 20.8326 43.3592 20.8055 43.4568 20.7482C43.5143 20.7121 43.5804 20.6488 43.6465 20.5584L44.7239 20.6608C44.5601 20.9621 44.359 21.1761 44.1263 21.3056C43.8936 21.4352 43.5603 21.5015 43.1264 21.5015C42.75 21.5015 42.4512 21.4472 42.2357 21.3327C42.0203 21.2213 41.8392 21.0435 41.6985 20.8024C41.5548 20.5584 41.4858 20.2752 41.4858 19.9467C41.4858 19.4797 41.6295 19.1001 41.9139 18.8108C42.1984 18.5216 42.592 18.377 43.0948 18.377C43.5028 18.377 43.8246 18.4432 44.0602 18.5698C44.2958 18.6993 44.4768 18.8862 44.6004 19.1332C44.7239 19.3803 44.7871 19.6997 44.7871 20.0944V20.23H44.7814ZM43.6723 19.6816C43.6522 19.4616 43.5948 19.302 43.5028 19.2055C43.4109 19.1091 43.2902 19.0609 43.1379 19.0609C42.9655 19.0609 42.8247 19.1332 42.7213 19.2778C42.6552 19.3682 42.6121 19.5008 42.5949 19.6816H43.6723Z" fill="white"/>
<path d="M48.1084 20.6094L49.1916 20.504C49.2347 20.6396 49.2979 20.736 49.3783 20.7932C49.4588 20.8505 49.568 20.8806 49.7001 20.8806C49.8467 20.8806 49.9616 20.8475 50.042 20.7812C50.1053 20.733 50.1369 20.6727 50.1369 20.5974C50.1369 20.516 50.0938 20.4528 50.0133 20.4076C49.9558 20.3744 49.7978 20.3353 49.545 20.2901C49.1657 20.2208 48.9014 20.1575 48.7549 20.0972C48.6083 20.037 48.4819 19.9375 48.3813 19.7989C48.2808 19.6603 48.2291 19.4976 48.2291 19.3169C48.2291 19.121 48.2837 18.9493 48.3928 18.8077C48.502 18.666 48.6514 18.5576 48.8439 18.4883C49.0364 18.419 49.2921 18.3828 49.6139 18.3828C49.953 18.3828 50.2058 18.4099 50.3667 18.4642C50.5276 18.5184 50.6627 18.6028 50.7718 18.7173C50.881 18.8318 50.9701 18.9854 51.0419 19.1813L50.0047 19.2867C49.9788 19.1903 49.9329 19.121 49.8697 19.0758C49.7835 19.0156 49.68 18.9854 49.5594 18.9854C49.4358 18.9854 49.3467 19.0095 49.2893 19.0547C49.2318 19.0999 49.2059 19.1572 49.2059 19.2234C49.2059 19.2958 49.2404 19.353 49.3123 19.3892C49.3841 19.4253 49.5392 19.4615 49.7806 19.4916C50.1426 19.5338 50.4127 19.5941 50.5908 19.6724C50.769 19.7477 50.904 19.8592 50.9988 20.0008C51.0936 20.1424 51.1396 20.2991 51.1396 20.4708C51.1396 20.6426 51.0908 20.8113 50.9902 20.974C50.8925 21.1367 50.7345 21.2663 50.5219 21.3627C50.3064 21.4591 50.0162 21.5073 49.6484 21.5073C49.1284 21.5073 48.7577 21.429 48.5365 21.2723C48.3124 21.1186 48.1716 20.8987 48.1084 20.6094Z" fill="white"/>
<path d="M56.5442 17.3164V18.4523H57.1447V19.2899H56.5442V20.3475C56.5442 20.4741 56.5557 20.5584 56.5786 20.6006C56.6131 20.6639 56.6763 20.697 56.7654 20.697C56.8459 20.697 56.9579 20.6729 57.1044 20.6247L57.1849 21.4171C56.9148 21.4774 56.662 21.5105 56.4292 21.5105C56.1563 21.5105 55.958 21.4744 55.8287 21.4021C55.6995 21.3298 55.6046 21.2183 55.5414 21.0676C55.4811 20.92 55.4495 20.6759 55.4495 20.3445V19.293H55.0472V18.4553H55.4495V17.907L56.5442 17.3164Z" fill="white"/>
<path d="M60.1899 18.452H61.2099V18.8889C61.3564 18.7081 61.5059 18.5786 61.6553 18.5002C61.8047 18.4219 61.9857 18.3857 62.1983 18.3857C62.4253 18.3857 62.6063 18.4279 62.7384 18.5123C62.8706 18.5967 62.9798 18.7232 63.0631 18.8889C63.2355 18.6931 63.3907 18.5605 63.5314 18.4912C63.6722 18.4219 63.8475 18.3857 64.0544 18.3857C64.3589 18.3857 64.5974 18.4822 64.7698 18.672C64.9422 18.8618 65.0255 19.1601 65.0255 19.5638V21.441H63.9308V19.7386C63.9308 19.603 63.905 19.5036 63.8561 19.4373C63.7843 19.3348 63.6923 19.2836 63.5832 19.2836C63.4539 19.2836 63.3504 19.3318 63.2729 19.4313C63.1953 19.5277 63.1551 19.6844 63.1551 19.9013V21.444H62.0604V19.7958C62.0604 19.6633 62.0518 19.5759 62.0374 19.5277C62.0144 19.4524 61.9742 19.3921 61.9167 19.3469C61.8593 19.3017 61.7932 19.2776 61.7156 19.2776C61.5892 19.2776 61.4857 19.3288 61.4053 19.4283C61.3248 19.5277 61.2846 19.6904 61.2846 19.9194V21.444H60.1899V18.452Z" fill="white"/>
<path d="M70.749 20.23H68.5597C68.5798 20.4138 68.6257 20.5524 68.7033 20.6397C68.8096 20.7693 68.9447 20.8326 69.1171 20.8326C69.2234 20.8326 69.3268 20.8055 69.4245 20.7482C69.482 20.7121 69.548 20.6488 69.6141 20.5584L70.6916 20.6608C70.5278 20.9621 70.3267 21.1761 70.0939 21.3056C69.8612 21.4352 69.5279 21.5015 69.0941 21.5015C68.7177 21.5015 68.4189 21.4472 68.2034 21.3327C67.9879 21.2213 67.8069 21.0435 67.6661 20.8024C67.5224 20.5584 67.4535 20.2752 67.4535 19.9467C67.4535 19.4797 67.5971 19.1001 67.8816 18.8108C68.166 18.5216 68.5597 18.377 69.0625 18.377C69.4705 18.377 69.7923 18.4432 70.0279 18.5698C70.2635 18.6993 70.4445 18.8862 70.568 19.1332C70.6916 19.3803 70.7548 19.6997 70.7548 20.0944V20.23H70.749ZM69.6371 19.6816C69.617 19.4616 69.5595 19.302 69.4676 19.2055C69.3756 19.1091 69.255 19.0609 69.1027 19.0609C68.9303 19.0609 68.7895 19.1332 68.6861 19.2778C68.62 19.3682 68.5769 19.5008 68.5597 19.6816H69.6371Z" fill="white"/>
<path d="M74.0848 18.452H75.1019V18.9401C75.2542 18.7413 75.4094 18.5997 75.5645 18.5153C75.7197 18.4309 75.9093 18.3857 76.1334 18.3857C76.4351 18.3857 76.6736 18.4791 76.8431 18.669C77.0155 18.8588 77.0988 19.148 77.0988 19.5427V21.444H76.0012V19.7989C76.0012 19.612 75.9696 19.4795 75.9036 19.4011C75.8375 19.3228 75.7455 19.2836 75.6249 19.2836C75.4927 19.2836 75.3864 19.3348 75.3031 19.4403C75.2197 19.5458 75.1795 19.7356 75.1795 20.0068V21.441H74.0877V18.452H74.0848Z" fill="white"/>
<path d="M82.5118 17.3164V18.4523H83.1123V19.2899H82.5118V20.3475C82.5118 20.4741 82.5233 20.5584 82.5463 20.6006C82.5808 20.6639 82.644 20.697 82.7331 20.697C82.8135 20.697 82.9256 20.6729 83.0721 20.6247L83.1525 21.4171C82.8825 21.4774 82.6296 21.5105 82.3969 21.5105C82.1239 21.5105 81.9257 21.4744 81.7964 21.4021C81.6671 21.3298 81.5723 21.2183 81.5091 21.0676C81.4487 20.92 81.4171 20.6759 81.4171 20.3445V19.293H81.0149V18.4553H81.4171V17.907L82.5118 17.3164Z" fill="white"/>
</svg>
