<svg width="129" height="32" viewBox="0 0 129 32" fill="none" xmlns="http://www.w3.org/2000/svg">
<path d="M51.7471 19.7607H43.8355L42.7363 23.5254H35.6218L44.0964 0.723145H51.6957L60.1682 23.5275H52.8729L51.7471 19.7607ZM50.3008 14.8304L47.8108 6.63199L45.3475 14.8304H50.3008Z" fill="#0C3050"/>
<path d="M62.354 0.723145H73.9369C76.4598 0.723145 78.3498 1.32982 79.6051 2.54317C80.8604 3.75652 81.489 5.48305 81.489 7.72275C81.489 10.0248 80.8049 11.824 79.4366 13.1205C78.0684 14.4169 75.977 15.0652 73.1686 15.0652H69.3555V23.5275H62.3561V0.723145H62.354ZM69.3535 10.4445H71.0607C72.4043 10.4445 73.3473 10.2097 73.8917 9.736C74.4361 9.26437 74.7073 8.65978 74.7073 7.92429C74.7073 7.2075 74.4711 6.6029 74.0006 6.10426C73.5281 5.60563 72.6406 5.35839 71.3401 5.35839H69.3576V10.4445H69.3535Z" fill="#0C3050"/>
<path d="M85.1194 0.723145H103.792V5.59108H92.1024V9.21451H102.946V13.8664H92.1024V18.3624H104.129V23.5275H85.1194V0.723145Z" fill="#0C3050"/>
<path d="M122.894 14.1925L129 16.0603C128.589 17.7931 127.944 19.2392 127.063 20.4006C126.181 21.562 125.086 22.4387 123.78 23.0288C122.473 23.6188 120.809 23.9159 118.787 23.9159C116.336 23.9159 114.335 23.5565 112.78 22.8356C111.227 22.1146 109.886 20.8493 108.758 19.0355C107.63 17.2218 107.067 14.901 107.067 12.0713C107.067 8.29824 108.059 5.39991 110.044 3.3742C112.028 1.34641 114.835 0.33252 118.465 0.33252C121.306 0.33252 123.537 0.914262 125.162 2.07567C126.787 3.23708 127.995 5.02178 128.784 7.42562L122.633 8.80934C122.418 8.1154 122.192 7.60638 121.955 7.28434C121.565 6.74623 121.088 6.3307 120.525 6.03983C119.961 5.74896 119.33 5.6056 118.633 5.6056C117.056 5.6056 115.845 6.24759 115.003 7.53158C114.368 8.48523 114.05 9.98114 114.05 12.0214C114.05 14.5499 114.43 16.2806 115.188 17.2176C115.946 18.1546 117.014 18.6242 118.387 18.6242C119.72 18.6242 120.727 18.246 121.409 17.4877C122.091 16.7335 122.586 15.6344 122.894 14.1925Z" fill="#0C3050"/>
<path d="M38.042 30.2217V29.2577H40.2279V31.2335C39.8088 31.5223 39.439 31.7176 39.1164 31.8236C38.7939 31.9275 38.4138 31.9794 37.9721 31.9794C37.4297 31.9794 36.986 31.8859 36.6429 31.6989C36.2998 31.5119 36.0348 31.2335 35.8458 30.8616C35.6568 30.4918 35.5623 30.0659 35.5623 29.586C35.5623 29.0811 35.665 28.6406 35.8704 28.2667C36.0759 27.8927 36.3779 27.608 36.7764 27.4148C37.0866 27.2652 37.5037 27.1904 38.0296 27.1904C38.5371 27.1904 38.9151 27.2361 39.1657 27.3296C39.4164 27.421 39.6259 27.5665 39.7903 27.7618C39.9567 27.9571 40.08 28.2043 40.1642 28.5035L38.8 28.7507C38.7446 28.5762 38.648 28.4433 38.5145 28.3498C38.3809 28.2563 38.2084 28.2106 38.0009 28.2106C37.6906 28.2106 37.4441 28.3186 37.2592 28.5368C37.0743 28.7549 36.9819 29.0998 36.9819 29.5714C36.9819 30.0721 37.0743 30.4316 37.2613 30.6456C37.4482 30.8596 37.7071 30.9676 38.0399 30.9676C38.1981 30.9676 38.3501 30.9447 38.4919 30.899C38.6357 30.8533 38.8 30.7744 38.9849 30.6622V30.2259H38.042V30.2217Z" fill="#0C3050"/>
<path d="M58.157 31.8982V27.2671H60.5155C60.9531 27.2671 61.2879 27.3045 61.518 27.3814C61.7481 27.4562 61.9351 27.5974 62.0768 27.8031C62.2186 28.0088 62.2884 28.2581 62.2884 28.5532C62.2884 28.8108 62.235 29.031 62.1261 29.218C62.0173 29.405 61.8673 29.5546 61.6783 29.6709C61.5571 29.7436 61.3927 29.806 61.1811 29.8538C61.3496 29.9099 61.4728 29.968 61.5489 30.0241C61.6002 30.0615 61.6762 30.1426 61.7748 30.2672C61.8735 30.3919 61.9392 30.4874 61.9741 30.556L62.6582 31.8982H61.0599L60.3039 30.4833C60.2073 30.3005 60.1231 30.182 60.0471 30.1259C59.9443 30.0553 59.8293 30.0179 59.6999 30.0179H59.5787V31.8982H58.157ZM59.5787 29.1432H60.1744C60.2402 29.1432 60.3634 29.1224 60.5504 29.0809C60.6449 29.0622 60.7209 29.0123 60.7805 28.9354C60.8401 28.8565 60.8688 28.7672 60.8688 28.6674C60.8688 28.5178 60.8216 28.4036 60.7271 28.3225C60.6326 28.2436 60.4579 28.202 60.1991 28.202H59.5787V29.1432Z" fill="#0C3050"/>
<path d="M80.0059 29.5856C80.0059 28.8293 80.2134 28.2393 80.6304 27.8196C81.0475 27.3978 81.6268 27.188 82.3705 27.188C83.1327 27.188 83.7203 27.3958 84.1332 27.8071C84.5462 28.2206 84.7516 28.8002 84.7516 29.5461C84.7516 30.0884 84.6612 30.5309 84.4804 30.8779C84.3017 31.2249 84.0408 31.495 83.6997 31.6861C83.3587 31.8793 82.9334 31.9749 82.426 31.9749C81.9103 31.9749 81.483 31.8918 81.144 31.7256C80.805 31.5594 80.5318 31.2955 80.3222 30.9361C80.1127 30.5766 80.0059 30.1258 80.0059 29.5856ZM81.4214 29.5918C81.4214 30.0593 81.5076 30.3959 81.6802 30.5995C81.8507 30.8031 82.087 30.907 82.3808 30.907C82.6848 30.907 82.9211 30.8073 83.0855 30.6057C83.2519 30.4063 83.3361 30.0468 83.3361 29.5295C83.3361 29.0932 83.2498 28.7753 83.0752 28.5738C82.9026 28.3722 82.6664 28.2725 82.3685 28.2725C82.0829 28.2725 81.8548 28.3743 81.6802 28.58C81.5076 28.7815 81.4214 29.1202 81.4214 29.5918Z" fill="#0C3050"/>
<path d="M105.565 27.2671H106.977V30.0262C106.977 30.3005 106.933 30.5581 106.849 30.8012C106.765 31.0443 106.633 31.2562 106.453 31.439C106.272 31.6218 106.083 31.7486 105.886 31.8234C105.61 31.9273 105.282 31.9792 104.895 31.9792C104.671 31.9792 104.429 31.9626 104.166 31.9314C103.903 31.9003 103.683 31.8379 103.505 31.7423C103.328 31.6489 103.166 31.5159 103.02 31.3434C102.872 31.171 102.771 30.9923 102.718 30.8095C102.629 30.5145 102.586 30.2527 102.586 30.0262V27.2671H103.998V30.0927C103.998 30.3462 104.067 30.5415 104.205 30.6848C104.343 30.8261 104.536 30.8967 104.782 30.8967C105.027 30.8967 105.216 30.8261 105.356 30.6869C105.493 30.5477 105.563 30.3482 105.563 30.0927V27.2671H105.565Z" fill="#0C3050"/>
<path d="M124.977 27.2671H127.33C127.843 27.2671 128.225 27.3897 128.482 27.6369C128.737 27.8821 128.866 28.2332 128.866 28.6882C128.866 29.1557 128.727 29.5213 128.449 29.7852C128.172 30.0491 127.747 30.18 127.176 30.18H126.401V31.8982H124.979V27.2671H124.977ZM126.399 29.2409H126.746C127.019 29.2409 127.21 29.1931 127.321 29.0975C127.432 29.0019 127.486 28.8793 127.486 28.7298C127.486 28.5843 127.439 28.4617 127.342 28.3599C127.247 28.2581 127.067 28.2083 126.802 28.2083H126.399V29.2409Z" fill="#0C3050"/>
<path d="M0 0V31.5762L14.3934 3.18089L15.7123 0.538112L31.7657 32H31.7821V0H0Z" fill="#0C3050"/>
<path d="M13.323 6.60889L0.44165 31.9999H26.2926L13.323 6.60889Z" fill="#0C3050"/>
</svg>
